<?xml version="1.0" standalone="no"?>
 <!DOCTYPE svg PUBLIC "-//W3C//DTD SVG 1.1//EN" 
 "http://www.w3.org/Graphics/SVG/1.1/DTD/svg11.dtd"> 
<svg xmlns="http://www.w3.org/2000/svg" version="1.1" 
    width="29.7002cm" height="21.0007cm" viewBox="0 0 116930 82680 ">
<title>SVG Picture created as pogo-F_Cu.svg date 2019/09/24 10:02:29 </title>
  <desc>Picture generated by PCBNEW </desc>
<g style="fill:#000000; fill-opacity:1;stroke:#000000; stroke-opacity:1;
stroke-linecap:round; stroke-linejoin:round; "
 transform="translate(0 0) scale(1 1)">
</g>
<g style="fill:#000000; fill-opacity:0.0; 
stroke:#000000; stroke-width:-0.000393701; stroke-opacity:1; 
stroke-linecap:round; stroke-linejoin:round;">
</g>
<g style="fill:#000000; fill-opacity:0.0; 
stroke:#000000; stroke-width:19.685; stroke-opacity:1; 
stroke-linecap:round; stroke-linejoin:round;">
<path d="M78912 50255
L78912 38444
" />
<path d="M71432 50255
L71432 38444
" />
<path d="M63951 50255
L63951 38444
" />
<path d="M56471 50255
L56471 38444
" />
<path d="M78912 36870
L78912 25059
" />
<path d="M71432 36870
L71432 25059
" />
<path d="M63951 36870
L63951 25059
" />
<path d="M84818 38444
L84818 50255
" />
<path d="M77337 38444
L77337 50255
" />
<path d="M69857 38444
L69857 50255
" />
<path d="M62377 38444
L62377 50255
" />
<path d="M84818 25059
L84818 36870
" />
<path d="M77337 25059
L77337 36870
" />
<path d="M69857 25059
L69857 36870
" />
<path d="M78912 38444
L84818 38444
" />
<path d="M71432 38444
L77337 38444
" />
<path d="M63951 38444
L69857 38444
" />
<path d="M56471 38444
L62377 38444
" />
<path d="M78912 25059
L84818 25059
" />
<path d="M71432 25059
L77337 25059
" />
<path d="M63951 25059
L69857 25059
" />
<path d="M84818 50255
L78912 50255
" />
<path d="M77337 50255
L71432 50255
" />
<path d="M69857 50255
L63951 50255
" />
<path d="M62377 50255
L56471 50255
" />
<path d="M84818 36870
L78912 36870
" />
<path d="M77337 36870
L71432 36870
" />
<path d="M69857 36870
L63951 36870
" />
<path d="M62377 36870
L56471 36870
" />
<path d="M62377 25059
L62377 36870
" />
<path d="M56471 25059
L62377 25059
" />
<path d="M56471 36870
L56471 25059
" />
<g >
</g>
<g style="fill:#000000; fill-opacity:1.0; 
stroke:#000000; stroke-width:0; stroke-opacity:1; 
stroke-linecap:round; stroke-linejoin:round;">
<circle cx="87077.2" cy="27920.1" r="492" /> 
</g>
<g style="fill:#000000; fill-opacity:1.0; 
stroke:#000000; stroke-width:39.3701; stroke-opacity:1; 
stroke-linecap:round; stroke-linejoin:round;">
</g>
<g >
</g>
<g style="fill:#000000; fill-opacity:1.0; 
stroke:#000000; stroke-width:39.3701; stroke-opacity:1; 
stroke-linecap:round; stroke-linejoin:round;">
</g>
<g style="fill:#000000; fill-opacity:1.0; 
stroke:#000000; stroke-width:0; stroke-opacity:1; 
stroke-linecap:round; stroke-linejoin:round;">
<circle cx="86877.2" cy="46370.1" r="492" /> 
</g>
<g style="fill:#000000; fill-opacity:1.0; 
stroke:#000000; stroke-width:39.3701; stroke-opacity:1; 
stroke-linecap:round; stroke-linejoin:round;">
</g>
<g >
</g>
<g style="fill:#000000; fill-opacity:1.0; 
stroke:#000000; stroke-width:39.3701; stroke-opacity:1; 
stroke-linecap:round; stroke-linejoin:round;">
</g>
<g style="fill:#000000; fill-opacity:1.0; 
stroke:#000000; stroke-width:0; stroke-opacity:1; 
stroke-linecap:round; stroke-linejoin:round;">
<circle cx="54277.2" cy="48170.1" r="492" /> 
</g>
<g style="fill:#000000; fill-opacity:1.0; 
stroke:#000000; stroke-width:39.3701; stroke-opacity:1; 
stroke-linecap:round; stroke-linejoin:round;">
</g>
<g >
</g>
<g style="fill:#000000; fill-opacity:1.0; 
stroke:#000000; stroke-width:39.3701; stroke-opacity:1; 
stroke-linecap:round; stroke-linejoin:round;">
</g>
<g style="fill:#000000; fill-opacity:1.0; 
stroke:#000000; stroke-width:0; stroke-opacity:1; 
stroke-linecap:round; stroke-linejoin:round;">
<circle cx="54377.2" cy="26270.1" r="492" /> 
</g>
<g style="fill:#000000; fill-opacity:1.0; 
stroke:#000000; stroke-width:39.3701; stroke-opacity:1; 
stroke-linecap:round; stroke-linejoin:round;">
</g>
<g >
</g>
<g style="fill:#000000; fill-opacity:1.0; 
stroke:#000000; stroke-width:39.3701; stroke-opacity:1; 
stroke-linecap:round; stroke-linejoin:round;">
</g>
<g style="fill:#000000; fill-opacity:1.0; 
stroke:#000000; stroke-width:0; stroke-opacity:1; 
stroke-linecap:round; stroke-linejoin:round;">
<path style="fill:#000000; fill-opacity:1.0; 
stroke:#000000; stroke-width:0; stroke-opacity:1; 
stroke-linecap:round; stroke-linejoin:round;fill-rule:evenodd;"
d="M 82710,44822
83104,44822
83104,46062
82710,46062
82710,44822
Z" /> 
<path style="fill:#000000; fill-opacity:1.0; 
stroke:#000000; stroke-width:0; stroke-opacity:1; 
stroke-linecap:round; stroke-linejoin:round;fill-rule:evenodd;"
d="M 82710,46810
83104,46810
83104,48050
82710,48050
82710,46810
Z" /> 
<path style="fill:#000000; fill-opacity:1.0; 
stroke:#000000; stroke-width:0; stroke-opacity:1; 
stroke-linecap:round; stroke-linejoin:round;fill-rule:evenodd;"
d="M 81710,44822
82104,44822
82104,46062
81710,46062
81710,44822
Z" /> 
<path style="fill:#000000; fill-opacity:1.0; 
stroke:#000000; stroke-width:0; stroke-opacity:1; 
stroke-linecap:round; stroke-linejoin:round;fill-rule:evenodd;"
d="M 81710,46810
82104,46810
82104,48050
81710,48050
81710,46810
Z" /> 
<path style="fill:#000000; fill-opacity:1.0; 
stroke:#000000; stroke-width:0; stroke-opacity:1; 
stroke-linecap:round; stroke-linejoin:round;fill-rule:evenodd;"
d="M 80710,44822
81104,44822
81104,46062
80710,46062
80710,44822
Z" /> 
<path style="fill:#000000; fill-opacity:1.0; 
stroke:#000000; stroke-width:0; stroke-opacity:1; 
stroke-linecap:round; stroke-linejoin:round;fill-rule:evenodd;"
d="M 80710,46810
81104,46810
81104,48050
80710,48050
80710,46810
Z" /> 
</g>
<g >
</g>
<g style="fill:#000000; fill-opacity:1.0; 
stroke:#000000; stroke-width:0; stroke-opacity:1; 
stroke-linecap:round; stroke-linejoin:round;">
<path style="fill:#000000; fill-opacity:1.0; 
stroke:#000000; stroke-width:0; stroke-opacity:1; 
stroke-linecap:round; stroke-linejoin:round;fill-rule:evenodd;"
d="M 75230,44822
75624,44822
75624,46062
75230,46062
75230,44822
Z" /> 
<path style="fill:#000000; fill-opacity:1.0; 
stroke:#000000; stroke-width:0; stroke-opacity:1; 
stroke-linecap:round; stroke-linejoin:round;fill-rule:evenodd;"
d="M 75230,46810
75624,46810
75624,48050
75230,48050
75230,46810
Z" /> 
<path style="fill:#000000; fill-opacity:1.0; 
stroke:#000000; stroke-width:0; stroke-opacity:1; 
stroke-linecap:round; stroke-linejoin:round;fill-rule:evenodd;"
d="M 74230,44822
74624,44822
74624,46062
74230,46062
74230,44822
Z" /> 
<path style="fill:#000000; fill-opacity:1.0; 
stroke:#000000; stroke-width:0; stroke-opacity:1; 
stroke-linecap:round; stroke-linejoin:round;fill-rule:evenodd;"
d="M 74230,46810
74624,46810
74624,48050
74230,48050
74230,46810
Z" /> 
<path style="fill:#000000; fill-opacity:1.0; 
stroke:#000000; stroke-width:0; stroke-opacity:1; 
stroke-linecap:round; stroke-linejoin:round;fill-rule:evenodd;"
d="M 73230,44822
73624,44822
73624,46062
73230,46062
73230,44822
Z" /> 
<path style="fill:#000000; fill-opacity:1.0; 
stroke:#000000; stroke-width:0; stroke-opacity:1; 
stroke-linecap:round; stroke-linejoin:round;fill-rule:evenodd;"
d="M 73230,46810
73624,46810
73624,48050
73230,48050
73230,46810
Z" /> 
</g>
<g >
</g>
<g style="fill:#000000; fill-opacity:1.0; 
stroke:#000000; stroke-width:0; stroke-opacity:1; 
stroke-linecap:round; stroke-linejoin:round;">
<path style="fill:#000000; fill-opacity:1.0; 
stroke:#000000; stroke-width:0; stroke-opacity:1; 
stroke-linecap:round; stroke-linejoin:round;fill-rule:evenodd;"
d="M 67750,44822
68143,44822
68143,46062
67750,46062
67750,44822
Z" /> 
<path style="fill:#000000; fill-opacity:1.0; 
stroke:#000000; stroke-width:0; stroke-opacity:1; 
stroke-linecap:round; stroke-linejoin:round;fill-rule:evenodd;"
d="M 67750,46810
68143,46810
68143,48050
67750,48050
67750,46810
Z" /> 
<path style="fill:#000000; fill-opacity:1.0; 
stroke:#000000; stroke-width:0; stroke-opacity:1; 
stroke-linecap:round; stroke-linejoin:round;fill-rule:evenodd;"
d="M 66750,44822
67143,44822
67143,46062
66750,46062
66750,44822
Z" /> 
<path style="fill:#000000; fill-opacity:1.0; 
stroke:#000000; stroke-width:0; stroke-opacity:1; 
stroke-linecap:round; stroke-linejoin:round;fill-rule:evenodd;"
d="M 66750,46810
67143,46810
67143,48050
66750,48050
66750,46810
Z" /> 
<path style="fill:#000000; fill-opacity:1.0; 
stroke:#000000; stroke-width:0; stroke-opacity:1; 
stroke-linecap:round; stroke-linejoin:round;fill-rule:evenodd;"
d="M 65750,44822
66143,44822
66143,46062
65750,46062
65750,44822
Z" /> 
<path style="fill:#000000; fill-opacity:1.0; 
stroke:#000000; stroke-width:0; stroke-opacity:1; 
stroke-linecap:round; stroke-linejoin:round;fill-rule:evenodd;"
d="M 65750,46810
66143,46810
66143,48050
65750,48050
65750,46810
Z" /> 
</g>
<g >
</g>
<g style="fill:#000000; fill-opacity:1.0; 
stroke:#000000; stroke-width:0; stroke-opacity:1; 
stroke-linecap:round; stroke-linejoin:round;">
<path style="fill:#000000; fill-opacity:1.0; 
stroke:#000000; stroke-width:0; stroke-opacity:1; 
stroke-linecap:round; stroke-linejoin:round;fill-rule:evenodd;"
d="M 60269,44822
60663,44822
60663,46062
60269,46062
60269,44822
Z" /> 
<path style="fill:#000000; fill-opacity:1.0; 
stroke:#000000; stroke-width:0; stroke-opacity:1; 
stroke-linecap:round; stroke-linejoin:round;fill-rule:evenodd;"
d="M 60269,46810
60663,46810
60663,48050
60269,48050
60269,46810
Z" /> 
<path style="fill:#000000; fill-opacity:1.0; 
stroke:#000000; stroke-width:0; stroke-opacity:1; 
stroke-linecap:round; stroke-linejoin:round;fill-rule:evenodd;"
d="M 59269,44822
59663,44822
59663,46062
59269,46062
59269,44822
Z" /> 
<path style="fill:#000000; fill-opacity:1.0; 
stroke:#000000; stroke-width:0; stroke-opacity:1; 
stroke-linecap:round; stroke-linejoin:round;fill-rule:evenodd;"
d="M 59269,46810
59663,46810
59663,48050
59269,48050
59269,46810
Z" /> 
<path style="fill:#000000; fill-opacity:1.0; 
stroke:#000000; stroke-width:0; stroke-opacity:1; 
stroke-linecap:round; stroke-linejoin:round;fill-rule:evenodd;"
d="M 58269,44822
58663,44822
58663,46062
58269,46062
58269,44822
Z" /> 
<path style="fill:#000000; fill-opacity:1.0; 
stroke:#000000; stroke-width:0; stroke-opacity:1; 
stroke-linecap:round; stroke-linejoin:round;fill-rule:evenodd;"
d="M 58269,46810
58663,46810
58663,48050
58269,48050
58269,46810
Z" /> 
</g>
<g >
</g>
<g style="fill:#000000; fill-opacity:1.0; 
stroke:#000000; stroke-width:0; stroke-opacity:1; 
stroke-linecap:round; stroke-linejoin:round;">
<path style="fill:#000000; fill-opacity:1.0; 
stroke:#000000; stroke-width:0; stroke-opacity:1; 
stroke-linecap:round; stroke-linejoin:round;fill-rule:evenodd;"
d="M 82710,31436
83104,31436
83104,32676
82710,32676
82710,31436
Z" /> 
<path style="fill:#000000; fill-opacity:1.0; 
stroke:#000000; stroke-width:0; stroke-opacity:1; 
stroke-linecap:round; stroke-linejoin:round;fill-rule:evenodd;"
d="M 82710,33424
83104,33424
83104,34664
82710,34664
82710,33424
Z" /> 
<path style="fill:#000000; fill-opacity:1.0; 
stroke:#000000; stroke-width:0; stroke-opacity:1; 
stroke-linecap:round; stroke-linejoin:round;fill-rule:evenodd;"
d="M 81710,31436
82104,31436
82104,32676
81710,32676
81710,31436
Z" /> 
<path style="fill:#000000; fill-opacity:1.0; 
stroke:#000000; stroke-width:0; stroke-opacity:1; 
stroke-linecap:round; stroke-linejoin:round;fill-rule:evenodd;"
d="M 81710,33424
82104,33424
82104,34664
81710,34664
81710,33424
Z" /> 
<path style="fill:#000000; fill-opacity:1.0; 
stroke:#000000; stroke-width:0; stroke-opacity:1; 
stroke-linecap:round; stroke-linejoin:round;fill-rule:evenodd;"
d="M 80710,31436
81104,31436
81104,32676
80710,32676
80710,31436
Z" /> 
<path style="fill:#000000; fill-opacity:1.0; 
stroke:#000000; stroke-width:0; stroke-opacity:1; 
stroke-linecap:round; stroke-linejoin:round;fill-rule:evenodd;"
d="M 80710,33424
81104,33424
81104,34664
80710,34664
80710,33424
Z" /> 
</g>
<g >
</g>
<g style="fill:#000000; fill-opacity:1.0; 
stroke:#000000; stroke-width:0; stroke-opacity:1; 
stroke-linecap:round; stroke-linejoin:round;">
<path style="fill:#000000; fill-opacity:1.0; 
stroke:#000000; stroke-width:0; stroke-opacity:1; 
stroke-linecap:round; stroke-linejoin:round;fill-rule:evenodd;"
d="M 75230,31436
75624,31436
75624,32676
75230,32676
75230,31436
Z" /> 
<path style="fill:#000000; fill-opacity:1.0; 
stroke:#000000; stroke-width:0; stroke-opacity:1; 
stroke-linecap:round; stroke-linejoin:round;fill-rule:evenodd;"
d="M 75230,33424
75624,33424
75624,34664
75230,34664
75230,33424
Z" /> 
<path style="fill:#000000; fill-opacity:1.0; 
stroke:#000000; stroke-width:0; stroke-opacity:1; 
stroke-linecap:round; stroke-linejoin:round;fill-rule:evenodd;"
d="M 74230,31436
74624,31436
74624,32676
74230,32676
74230,31436
Z" /> 
<path style="fill:#000000; fill-opacity:1.0; 
stroke:#000000; stroke-width:0; stroke-opacity:1; 
stroke-linecap:round; stroke-linejoin:round;fill-rule:evenodd;"
d="M 74230,33424
74624,33424
74624,34664
74230,34664
74230,33424
Z" /> 
<path style="fill:#000000; fill-opacity:1.0; 
stroke:#000000; stroke-width:0; stroke-opacity:1; 
stroke-linecap:round; stroke-linejoin:round;fill-rule:evenodd;"
d="M 73230,31436
73624,31436
73624,32676
73230,32676
73230,31436
Z" /> 
<path style="fill:#000000; fill-opacity:1.0; 
stroke:#000000; stroke-width:0; stroke-opacity:1; 
stroke-linecap:round; stroke-linejoin:round;fill-rule:evenodd;"
d="M 73230,33424
73624,33424
73624,34664
73230,34664
73230,33424
Z" /> 
</g>
<g >
</g>
<g style="fill:#000000; fill-opacity:1.0; 
stroke:#000000; stroke-width:0; stroke-opacity:1; 
stroke-linecap:round; stroke-linejoin:round;">
<path style="fill:#000000; fill-opacity:1.0; 
stroke:#000000; stroke-width:0; stroke-opacity:1; 
stroke-linecap:round; stroke-linejoin:round;fill-rule:evenodd;"
d="M 67750,31436
68143,31436
68143,32676
67750,32676
67750,31436
Z" /> 
<path style="fill:#000000; fill-opacity:1.0; 
stroke:#000000; stroke-width:0; stroke-opacity:1; 
stroke-linecap:round; stroke-linejoin:round;fill-rule:evenodd;"
d="M 67750,33424
68143,33424
68143,34664
67750,34664
67750,33424
Z" /> 
<path style="fill:#000000; fill-opacity:1.0; 
stroke:#000000; stroke-width:0; stroke-opacity:1; 
stroke-linecap:round; stroke-linejoin:round;fill-rule:evenodd;"
d="M 66750,31436
67143,31436
67143,32676
66750,32676
66750,31436
Z" /> 
<path style="fill:#000000; fill-opacity:1.0; 
stroke:#000000; stroke-width:0; stroke-opacity:1; 
stroke-linecap:round; stroke-linejoin:round;fill-rule:evenodd;"
d="M 66750,33424
67143,33424
67143,34664
66750,34664
66750,33424
Z" /> 
<path style="fill:#000000; fill-opacity:1.0; 
stroke:#000000; stroke-width:0; stroke-opacity:1; 
stroke-linecap:round; stroke-linejoin:round;fill-rule:evenodd;"
d="M 65750,31436
66143,31436
66143,32676
65750,32676
65750,31436
Z" /> 
<path style="fill:#000000; fill-opacity:1.0; 
stroke:#000000; stroke-width:0; stroke-opacity:1; 
stroke-linecap:round; stroke-linejoin:round;fill-rule:evenodd;"
d="M 65750,33424
66143,33424
66143,34664
65750,34664
65750,33424
Z" /> 
</g>
<g >
</g>
<g style="fill:#000000; fill-opacity:1.0; 
stroke:#000000; stroke-width:0; stroke-opacity:1; 
stroke-linecap:round; stroke-linejoin:round;">
<path style="fill:#000000; fill-opacity:1.0; 
stroke:#000000; stroke-width:0; stroke-opacity:1; 
stroke-linecap:round; stroke-linejoin:round;fill-rule:evenodd;"
d="M 82320,40084
82989,40084
82989,40753
82320,40753
82320,40084
Z" /> 
</g>
<g style="fill:#000000; fill-opacity:1.0; 
stroke:#000000; stroke-width:669.291; stroke-opacity:1; 
stroke-linecap:round; stroke-linejoin:round;">
</g>
<g style="fill:#000000; fill-opacity:0.0; 
stroke:#000000; stroke-width:669.291; stroke-opacity:1; 
stroke-linecap:round; stroke-linejoin:round;">
<path d="M82654 41206
L82654 41206
" />
<path d="M81867 40418
L81867 40418
" />
<path d="M81867 41206
L81867 41206
" />
<path d="M81079 40418
L81079 40418
" />
<path d="M81079 41206
L81079 41206
" />
</g>
<g >
</g>
<g style="fill:#000000; fill-opacity:0.0; 
stroke:#000000; stroke-width:669.291; stroke-opacity:1; 
stroke-linecap:round; stroke-linejoin:round;">
</g>
<g style="fill:#000000; fill-opacity:0.0; 
stroke:#000000; stroke-width:0; stroke-opacity:1; 
stroke-linecap:round; stroke-linejoin:round;">
</g>
<g style="fill:#000000; fill-opacity:1.0; 
stroke:#000000; stroke-width:0; stroke-opacity:1; 
stroke-linecap:round; stroke-linejoin:round;">
<path style="fill:#000000; fill-opacity:1.0; 
stroke:#000000; stroke-width:0; stroke-opacity:1; 
stroke-linecap:round; stroke-linejoin:round;fill-rule:evenodd;"
d="M 74839,40084
75509,40084
75509,40753
74839,40753
74839,40084
Z" /> 
</g>
<g style="fill:#000000; fill-opacity:1.0; 
stroke:#000000; stroke-width:669.291; stroke-opacity:1; 
stroke-linecap:round; stroke-linejoin:round;">
</g>
<g style="fill:#000000; fill-opacity:0.0; 
stroke:#000000; stroke-width:669.291; stroke-opacity:1; 
stroke-linecap:round; stroke-linejoin:round;">
<path d="M75174 41206
L75174 41206
" />
<path d="M74387 40418
L74387 40418
" />
<path d="M74387 41206
L74387 41206
" />
<path d="M73599 40418
L73599 40418
" />
<path d="M73599 41206
L73599 41206
" />
</g>
<g >
</g>
<g style="fill:#000000; fill-opacity:0.0; 
stroke:#000000; stroke-width:669.291; stroke-opacity:1; 
stroke-linecap:round; stroke-linejoin:round;">
</g>
<g style="fill:#000000; fill-opacity:0.0; 
stroke:#000000; stroke-width:0; stroke-opacity:1; 
stroke-linecap:round; stroke-linejoin:round;">
</g>
<g style="fill:#000000; fill-opacity:1.0; 
stroke:#000000; stroke-width:0; stroke-opacity:1; 
stroke-linecap:round; stroke-linejoin:round;">
<path style="fill:#000000; fill-opacity:1.0; 
stroke:#000000; stroke-width:0; stroke-opacity:1; 
stroke-linecap:round; stroke-linejoin:round;fill-rule:evenodd;"
d="M 67359,40084
68028,40084
68028,40753
67359,40753
67359,40084
Z" /> 
</g>
<g style="fill:#000000; fill-opacity:1.0; 
stroke:#000000; stroke-width:669.291; stroke-opacity:1; 
stroke-linecap:round; stroke-linejoin:round;">
</g>
<g style="fill:#000000; fill-opacity:0.0; 
stroke:#000000; stroke-width:669.291; stroke-opacity:1; 
stroke-linecap:round; stroke-linejoin:round;">
<path d="M67694 41206
L67694 41206
" />
<path d="M66906 40418
L66906 40418
" />
<path d="M66906 41206
L66906 41206
" />
<path d="M66119 40418
L66119 40418
" />
<path d="M66119 41206
L66119 41206
" />
</g>
<g >
</g>
<g style="fill:#000000; fill-opacity:0.0; 
stroke:#000000; stroke-width:669.291; stroke-opacity:1; 
stroke-linecap:round; stroke-linejoin:round;">
</g>
<g style="fill:#000000; fill-opacity:0.0; 
stroke:#000000; stroke-width:0; stroke-opacity:1; 
stroke-linecap:round; stroke-linejoin:round;">
</g>
<g style="fill:#000000; fill-opacity:1.0; 
stroke:#000000; stroke-width:0; stroke-opacity:1; 
stroke-linecap:round; stroke-linejoin:round;">
<path style="fill:#000000; fill-opacity:1.0; 
stroke:#000000; stroke-width:0; stroke-opacity:1; 
stroke-linecap:round; stroke-linejoin:round;fill-rule:evenodd;"
d="M 59879,40084
60548,40084
60548,40753
59879,40753
59879,40084
Z" /> 
</g>
<g style="fill:#000000; fill-opacity:1.0; 
stroke:#000000; stroke-width:669.291; stroke-opacity:1; 
stroke-linecap:round; stroke-linejoin:round;">
</g>
<g style="fill:#000000; fill-opacity:0.0; 
stroke:#000000; stroke-width:669.291; stroke-opacity:1; 
stroke-linecap:round; stroke-linejoin:round;">
<path d="M60213 41206
L60213 41206
" />
<path d="M59426 40418
L59426 40418
" />
<path d="M59426 41206
L59426 41206
" />
<path d="M58638 40418
L58638 40418
" />
<path d="M58638 41206
L58638 41206
" />
</g>
<g >
</g>
<g style="fill:#000000; fill-opacity:0.0; 
stroke:#000000; stroke-width:669.291; stroke-opacity:1; 
stroke-linecap:round; stroke-linejoin:round;">
</g>
<g style="fill:#000000; fill-opacity:0.0; 
stroke:#000000; stroke-width:0; stroke-opacity:1; 
stroke-linecap:round; stroke-linejoin:round;">
</g>
<g style="fill:#000000; fill-opacity:1.0; 
stroke:#000000; stroke-width:0; stroke-opacity:1; 
stroke-linecap:round; stroke-linejoin:round;">
<path style="fill:#000000; fill-opacity:1.0; 
stroke:#000000; stroke-width:0; stroke-opacity:1; 
stroke-linecap:round; stroke-linejoin:round;fill-rule:evenodd;"
d="M 82320,26698
82989,26698
82989,27367
82320,27367
82320,26698
Z" /> 
</g>
<g style="fill:#000000; fill-opacity:1.0; 
stroke:#000000; stroke-width:669.291; stroke-opacity:1; 
stroke-linecap:round; stroke-linejoin:round;">
</g>
<g style="fill:#000000; fill-opacity:0.0; 
stroke:#000000; stroke-width:669.291; stroke-opacity:1; 
stroke-linecap:round; stroke-linejoin:round;">
<path d="M82654 27820
L82654 27820
" />
<path d="M81867 27032
L81867 27032
" />
<path d="M81867 27820
L81867 27820
" />
<path d="M81079 27032
L81079 27032
" />
<path d="M81079 27820
L81079 27820
" />
</g>
<g >
</g>
<g style="fill:#000000; fill-opacity:0.0; 
stroke:#000000; stroke-width:669.291; stroke-opacity:1; 
stroke-linecap:round; stroke-linejoin:round;">
</g>
<g style="fill:#000000; fill-opacity:0.0; 
stroke:#000000; stroke-width:0; stroke-opacity:1; 
stroke-linecap:round; stroke-linejoin:round;">
</g>
<g style="fill:#000000; fill-opacity:1.0; 
stroke:#000000; stroke-width:0; stroke-opacity:1; 
stroke-linecap:round; stroke-linejoin:round;">
<path style="fill:#000000; fill-opacity:1.0; 
stroke:#000000; stroke-width:0; stroke-opacity:1; 
stroke-linecap:round; stroke-linejoin:round;fill-rule:evenodd;"
d="M 74839,26698
75509,26698
75509,27367
74839,27367
74839,26698
Z" /> 
</g>
<g style="fill:#000000; fill-opacity:1.0; 
stroke:#000000; stroke-width:669.291; stroke-opacity:1; 
stroke-linecap:round; stroke-linejoin:round;">
</g>
<g style="fill:#000000; fill-opacity:0.0; 
stroke:#000000; stroke-width:669.291; stroke-opacity:1; 
stroke-linecap:round; stroke-linejoin:round;">
<path d="M75174 27820
L75174 27820
" />
<path d="M74387 27032
L74387 27032
" />
<path d="M74387 27820
L74387 27820
" />
<path d="M73599 27032
L73599 27032
" />
<path d="M73599 27820
L73599 27820
" />
</g>
<g >
</g>
<g style="fill:#000000; fill-opacity:0.0; 
stroke:#000000; stroke-width:669.291; stroke-opacity:1; 
stroke-linecap:round; stroke-linejoin:round;">
</g>
<g style="fill:#000000; fill-opacity:0.0; 
stroke:#000000; stroke-width:0; stroke-opacity:1; 
stroke-linecap:round; stroke-linejoin:round;">
</g>
<g style="fill:#000000; fill-opacity:1.0; 
stroke:#000000; stroke-width:0; stroke-opacity:1; 
stroke-linecap:round; stroke-linejoin:round;">
<path style="fill:#000000; fill-opacity:1.0; 
stroke:#000000; stroke-width:0; stroke-opacity:1; 
stroke-linecap:round; stroke-linejoin:round;fill-rule:evenodd;"
d="M 67359,26698
68028,26698
68028,27367
67359,27367
67359,26698
Z" /> 
</g>
<g style="fill:#000000; fill-opacity:1.0; 
stroke:#000000; stroke-width:669.291; stroke-opacity:1; 
stroke-linecap:round; stroke-linejoin:round;">
</g>
<g style="fill:#000000; fill-opacity:0.0; 
stroke:#000000; stroke-width:669.291; stroke-opacity:1; 
stroke-linecap:round; stroke-linejoin:round;">
<path d="M67694 27820
L67694 27820
" />
<path d="M66906 27032
L66906 27032
" />
<path d="M66906 27820
L66906 27820
" />
<path d="M66119 27032
L66119 27032
" />
<path d="M66119 27820
L66119 27820
" />
</g>
<g >
</g>
<g style="fill:#000000; fill-opacity:0.0; 
stroke:#000000; stroke-width:669.291; stroke-opacity:1; 
stroke-linecap:round; stroke-linejoin:round;">
<path d="M58638 27820
L58638 27820
" />
<path d="M58638 27032
L58638 27032
" />
<path d="M59426 27820
L59426 27820
" />
<path d="M59426 27032
L59426 27032
" />
<path d="M60213 27820
L60213 27820
" />
</g>
<g style="fill:#000000; fill-opacity:0.0; 
stroke:#000000; stroke-width:0; stroke-opacity:1; 
stroke-linecap:round; stroke-linejoin:round;">
</g>
<g style="fill:#000000; fill-opacity:1.0; 
stroke:#000000; stroke-width:0; stroke-opacity:1; 
stroke-linecap:round; stroke-linejoin:round;">
<path style="fill:#000000; fill-opacity:1.0; 
stroke:#000000; stroke-width:0; stroke-opacity:1; 
stroke-linecap:round; stroke-linejoin:round;fill-rule:evenodd;"
d="M 59879,26698
60548,26698
60548,27367
59879,27367
59879,26698
Z" /> 
</g>
<g >
</g>
<g style="fill:#000000; fill-opacity:1.0; 
stroke:#000000; stroke-width:0; stroke-opacity:1; 
stroke-linecap:round; stroke-linejoin:round;">
<path style="fill:#000000; fill-opacity:1.0; 
stroke:#000000; stroke-width:0; stroke-opacity:1; 
stroke-linecap:round; stroke-linejoin:round;fill-rule:evenodd;"
d="M 58269,33424
58663,33424
58663,34664
58269,34664
58269,33424
Z" /> 
<path style="fill:#000000; fill-opacity:1.0; 
stroke:#000000; stroke-width:0; stroke-opacity:1; 
stroke-linecap:round; stroke-linejoin:round;fill-rule:evenodd;"
d="M 58269,31436
58663,31436
58663,32676
58269,32676
58269,31436
Z" /> 
<path style="fill:#000000; fill-opacity:1.0; 
stroke:#000000; stroke-width:0; stroke-opacity:1; 
stroke-linecap:round; stroke-linejoin:round;fill-rule:evenodd;"
d="M 59269,33424
59663,33424
59663,34664
59269,34664
59269,33424
Z" /> 
<path style="fill:#000000; fill-opacity:1.0; 
stroke:#000000; stroke-width:0; stroke-opacity:1; 
stroke-linecap:round; stroke-linejoin:round;fill-rule:evenodd;"
d="M 59269,31436
59663,31436
59663,32676
59269,32676
59269,31436
Z" /> 
<path style="fill:#000000; fill-opacity:1.0; 
stroke:#000000; stroke-width:0; stroke-opacity:1; 
stroke-linecap:round; stroke-linejoin:round;fill-rule:evenodd;"
d="M 60269,33424
60663,33424
60663,34664
60269,34664
60269,33424
Z" /> 
<path style="fill:#000000; fill-opacity:1.0; 
stroke:#000000; stroke-width:0; stroke-opacity:1; 
stroke-linecap:round; stroke-linejoin:round;fill-rule:evenodd;"
d="M 60269,31436
60663,31436
60663,32676
60269,32676
60269,31436
Z" /> 
</g>
<g >
</g>
<g >
</g>
<g style="fill:#000000; fill-opacity:1.0; 
stroke:#000000; stroke-width:0; stroke-opacity:1; 
stroke-linecap:round; stroke-linejoin:round;">
</g>
<g style="fill:#000000; fill-opacity:1.0; 
stroke:#000000; stroke-width:59.0551; stroke-opacity:1; 
stroke-linecap:round; stroke-linejoin:round;">
</g>
<g style="fill:#000000; fill-opacity:0.0; 
stroke:#000000; stroke-width:59.0551; stroke-opacity:1; 
stroke-linecap:round; stroke-linejoin:round;">
<path d="M58899 28080
L58638 27820
" />
<path d="M58899 31759
L58899 28080
" />
<path d="M58363 32038
L58619 32038
" />
<path d="M58619 32038
L58899 31759
" />
<path d="M66379 31759
L66379 28080
" />
<path d="M73860 31759
L73860 28080
" />
<path d="M81340 31759
L81340 28080
" />
<path d="M58899 45144
L58899 41466
" />
<path d="M66379 45144
L66379 41466
" />
<path d="M73860 45144
L73860 41466
" />
<path d="M81340 45144
L81340 41466
" />
<path d="M66100 32038
L66379 31759
" />
<path d="M73580 32038
L73860 31759
" />
<path d="M81060 32038
L81340 31759
" />
<path d="M58619 45424
L58899 45144
" />
<path d="M66100 45424
L66379 45144
" />
<path d="M73580 45424
L73860 45144
" />
<path d="M81060 45424
L81340 45144
" />
<path d="M65844 32038
L66100 32038
" />
<path d="M73324 32038
L73580 32038
" />
<path d="M80804 32038
L81060 32038
" />
<path d="M58363 45424
L58619 45424
" />
<path d="M65844 45424
L66100 45424
" />
<path d="M73324 45424
L73580 45424
" />
<path d="M80804 45424
L81060 45424
" />
<path d="M66379 28080
L66119 27820
" />
<path d="M73860 28080
L73599 27820
" />
<path d="M81340 28080
L81079 27820
" />
<path d="M58899 41466
L58638 41206
" />
<path d="M66379 41466
L66119 41206
" />
<path d="M73860 41466
L73599 41206
" />
<path d="M81340 41466
L81079 41206
" />
<path d="M59426 27032
L59426 26670
" />
<path d="M59426 26670
L59677 26420
" />
<path d="M59677 26420
L60777 26420
" />
<path d="M60777 26420
L61177 26820
" />
<path d="M61177 26820
L61177 34720
" />
<path d="M61177 34720
L60777 35120
" />
<path d="M60777 35120
L59677 35120
" />
<path d="M59466 34909
L59466 34044
" />
<path d="M59677 35120
L59466 34909
" />
<path d="M67157 35120
L66946 34909
" />
<path d="M74637 35120
L74427 34909
" />
<path d="M82118 35120
L81907 34909
" />
<path d="M59677 48505
L59466 48295
" />
<path d="M67157 48505
L66946 48295
" />
<path d="M74637 48505
L74427 48295
" />
<path d="M82118 48505
L81907 48295
" />
<path d="M67157 26420
L68257 26420
" />
<path d="M74637 26420
L75737 26420
" />
<path d="M82118 26420
L83218 26420
" />
<path d="M59677 39805
L60777 39805
" />
<path d="M67157 39805
L68257 39805
" />
<path d="M74637 39805
L75737 39805
" />
<path d="M82118 39805
L83218 39805
" />
<path d="M68657 34720
L68257 35120
" />
<path d="M76137 34720
L75737 35120
" />
<path d="M83618 34720
L83218 35120
" />
<path d="M61177 48105
L60777 48505
" />
<path d="M68657 48105
L68257 48505
" />
<path d="M76137 48105
L75737 48505
" />
<path d="M83618 48105
L83218 48505
" />
<path d="M68257 35120
L67157 35120
" />
<path d="M75737 35120
L74637 35120
" />
<path d="M83218 35120
L82118 35120
" />
<path d="M60777 48505
L59677 48505
" />
<path d="M68257 48505
L67157 48505
" />
<path d="M75737 48505
L74637 48505
" />
<path d="M83218 48505
L82118 48505
" />
<path d="M68657 26820
L68657 34720
" />
<path d="M76137 26820
L76137 34720
" />
<path d="M83618 26820
L83618 34720
" />
<path d="M61177 40205
L61177 48105
" />
<path d="M68657 40205
L68657 48105
" />
<path d="M76137 40205
L76137 48105
" />
<path d="M83618 40205
L83618 48105
" />
<path d="M66946 34909
L66946 34044
" />
<path d="M74427 34909
L74427 34044
" />
<path d="M81907 34909
L81907 34044
" />
<path d="M59466 48295
L59466 47430
" />
<path d="M66946 48295
L66946 47430
" />
<path d="M74427 48295
L74427 47430
" />
<path d="M81907 48295
L81907 47430
" />
<path d="M66906 26670
L67157 26420
" />
<path d="M74387 26670
L74637 26420
" />
<path d="M81867 26670
L82118 26420
" />
<path d="M59426 40056
L59677 39805
" />
<path d="M66906 40056
L67157 39805
" />
<path d="M74387 40056
L74637 39805
" />
<path d="M81867 40056
L82118 39805
" />
<path d="M66906 27032
L66906 26670
" />
<path d="M74387 27032
L74387 26670
" />
<path d="M81867 27032
L81867 26670
" />
<path d="M59426 40418
L59426 40056
" />
<path d="M66906 40418
L66906 40056
" />
<path d="M74387 40418
L74387 40056
" />
<path d="M81867 40418
L81867 40056
" />
<path d="M68257 26420
L68657 26820
" />
<path d="M75737 26420
L76137 26820
" />
<path d="M83218 26420
L83618 26820
" />
<path d="M60777 39805
L61177 40205
" />
<path d="M68257 39805
L68657 40205
" />
<path d="M75737 39805
L76137 40205
" />
<path d="M83218 39805
L83618 40205
" />
<path d="M59363 32038
L59477 31925
" />
<path d="M59477 27871
L59426 27820
" />
<path d="M59477 31925
L59477 27871
" />
<path d="M66957 27871
L66906 27820
" />
<path d="M74437 27871
L74387 27820
" />
<path d="M81918 27871
L81867 27820
" />
<path d="M59477 41256
L59426 41206
" />
<path d="M66957 41256
L66906 41206
" />
<path d="M74437 41256
L74387 41206
" />
<path d="M81918 41256
L81867 41206
" />
<path d="M66957 31925
L66957 27871
" />
<path d="M74437 31925
L74437 27871
" />
<path d="M81918 31925
L81918 27871
" />
<path d="M59477 45311
L59477 41256
" />
<path d="M66957 45311
L66957 41256
" />
<path d="M74437 45311
L74437 41256
" />
<path d="M81918 45311
L81918 41256
" />
<path d="M66844 32038
L66957 31925
" />
<path d="M74324 32038
L74437 31925
" />
<path d="M81804 32038
L81918 31925
" />
<path d="M59363 45424
L59477 45311
" />
<path d="M66844 45424
L66957 45311
" />
<path d="M74324 45424
L74437 45311
" />
<path d="M81804 45424
L81918 45311
" />
<path d="M60364 27183
L60213 27032
" />
<path d="M60363 33603
L60999 32968
" />
<path d="M60999 32968
L60999 27618
" />
<path d="M60363 34026
L60363 33603
" />
<path d="M60564 27183
L60364 27183
" />
<path d="M60999 27618
L60564 27183
" />
<path d="M67844 33603
L68479 32968
" />
<path d="M75324 33603
L75959 32968
" />
<path d="M82804 33603
L83440 32968
" />
<path d="M60363 46989
L60999 46354
" />
<path d="M67844 46989
L68479 46354
" />
<path d="M75324 46989
L75959 46354
" />
<path d="M82804 46989
L83440 46354
" />
<path d="M68479 32968
L68479 27618
" />
<path d="M75959 32968
L75959 27618
" />
<path d="M83440 32968
L83440 27618
" />
<path d="M60999 46354
L60999 41003
" />
<path d="M68479 46354
L68479 41003
" />
<path d="M75959 46354
L75959 41003
" />
<path d="M83440 46354
L83440 41003
" />
<path d="M67844 34026
L67844 33603
" />
<path d="M75324 34026
L75324 33603
" />
<path d="M82804 34026
L82804 33603
" />
<path d="M60363 47412
L60363 46989
" />
<path d="M67844 47412
L67844 46989
" />
<path d="M75324 47412
L75324 46989
" />
<path d="M82804 47412
L82804 46989
" />
<path d="M68479 27618
L68044 27183
" />
<path d="M75959 27618
L75525 27183
" />
<path d="M83440 27618
L83005 27183
" />
<path d="M60999 41003
L60564 40569
" />
<path d="M68479 41003
L68044 40569
" />
<path d="M75959 41003
L75525 40569
" />
<path d="M83440 41003
L83005 40569
" />
<path d="M68044 27183
L67844 27183
" />
<path d="M75525 27183
L75324 27183
" />
<path d="M83005 27183
L82805 27183
" />
<path d="M60564 40569
L60364 40569
" />
<path d="M68044 40569
L67844 40569
" />
<path d="M75525 40569
L75324 40569
" />
<path d="M83005 40569
L82805 40569
" />
<path d="M67844 27183
L67694 27032
" />
<path d="M75324 27183
L75174 27032
" />
<path d="M82805 27183
L82654 27032
" />
<path d="M60364 40569
L60213 40418
" />
<path d="M67844 40569
L67694 40418
" />
<path d="M75324 40569
L75174 40418
" />
<path d="M82805 40569
L82654 40418
" />
<path d="M60363 27970
L60213 27820
" />
<path d="M60363 32038
L60363 27970
" />
<path d="M67844 27970
L67694 27820
" />
<path d="M75324 27970
L75174 27820
" />
<path d="M82804 27970
L82654 27820
" />
<path d="M60363 41356
L60213 41206
" />
<path d="M67844 41356
L67694 41206
" />
<path d="M75324 41356
L75174 41206
" />
<path d="M82804 41356
L82654 41206
" />
<path d="M67844 32038
L67844 27970
" />
<path d="M75324 32038
L75324 27970
" />
<path d="M82804 32038
L82804 27970
" />
<path d="M60363 45424
L60363 41356
" />
<path d="M67844 45424
L67844 41356
" />
<path d="M75324 45424
L75324 41356
" />
<path d="M82804 45424
L82804 41356
" />
</g>
<g >
</g>
<g style="fill:#000000; fill-opacity:0.0; 
stroke:#000000; stroke-width:59.0551; stroke-opacity:1; 
stroke-linecap:round; stroke-linejoin:round;">
</g>
<g style="fill:#000000; fill-opacity:1.0; 
stroke:#000000; stroke-width:99.6063; stroke-opacity:1; 
stroke-linecap:round; stroke-linejoin:round;">
<path style="fill:#000000; fill-opacity:1.0; 
stroke:#000000; stroke-width:99.6063; stroke-opacity:1; 
stroke-linecap:round; stroke-linejoin:round;fill-rule:evenodd;"
d="M 62217,36710
56631,36710
56631,34664
58119,34664
58122,34693
58130,34722
58144,34748
58163,34771
58186,34789
58212,34803
58240,34812
58269,34815
58428,34814
58466,34776
58466,34044
58466,34044
58466,34776
58504,34814
58663,34815
58692,34812
58720,34803
58747,34789
58769,34771
58788,34748
58802,34722
58811,34693
58813,34664
58813,34082
58775,34044
58466,34044
58466,34044
58157,34044
58119,34082
58119,34664
56631,34664
56631,33424
58119,33424
58119,34006
58157,34044
58466,34044
58466,33312
58466,33312
58466,34044
58775,34044
58813,34006
58813,33424
58811,33395
58802,33366
58788,33340
58769,33317
58747,33299
58720,33285
58692,33276
58663,33273
58504,33274
58466,33312
58466,33312
58428,33274
58269,33273
58240,33276
58212,33285
58186,33299
58163,33317
58144,33340
58130,33366
58122,33395
58119,33424
56631,33424
56631,31436
58119,31436
58119,32676
58122,32705
58130,32733
58144,32760
58163,32782
58186,32801
58212,32815
58240,32824
58269,32826
58663,32826
58692,32824
58720,32815
58747,32801
58769,32782
58788,32760
58802,32733
58811,32705
58813,32676
58813,32098
59019,31892
59026,31886
59049,31859
59056,31844
59065,31828
59076,31794
59079,31759
59078,31750
59078,28160
59082,28164
59155,28225
59240,28270
59297,28287
59297,31285
59269,31285
59240,31288
59212,31297
59186,31311
59163,31329
59144,31352
59130,31378
59122,31406
59119,31436
59119,32676
59122,32705
59130,32733
59144,32760
59163,32782
59186,32801
59212,32815
59240,32824
59269,32826
59663,32826
59692,32824
59720,32815
59747,32801
59769,32782
59788,32760
59802,32733
59811,32705
59813,32676
59813,31436
59811,31406
59802,31378
59788,31352
59769,31329
59747,31311
59720,31297
59692,31288
59663,31285
59656,31285
59656,28246
59696,28225
59770,28164
59820,28104
59869,28164
59943,28225
60027,28270
60118,28297
60184,28304
60184,31312
60163,31329
60144,31352
60130,31378
60122,31406
60119,31436
60119,32676
60122,32705
60130,32733
60144,32760
60163,32782
60186,32801
60212,32815
60240,32824
60269,32826
60663,32826
60692,32824
60720,32815
60747,32801
60769,32782
60788,32760
60802,32733
60811,32705
60813,32676
60813,31436
60811,31406
60802,31378
60788,31352
60769,31329
60747,31311
60720,31297
60692,31288
60663,31285
60543,31285
60543,28176
60557,28164
60618,28090
60663,28006
60691,27915
60700,27820
60691,27725
60663,27633
60618,27549
60587,27512
60606,27506
60624,27496
60819,27692
60819,32894
60440,33273
60269,33273
60240,33276
60212,33285
60186,33299
60163,33317
60144,33340
60130,33366
60122,33395
60119,33424
60119,34664
60122,34693
60130,34722
60144,34748
60163,34771
60186,34789
60212,34803
60240,34812
60269,34815
60663,34815
60692,34812
60720,34803
60747,34789
60769,34771
60788,34748
60802,34722
60811,34693
60813,34664
60813,33424
60812,33408
60997,33223
60997,34645
60702,34940
59751,34940
59645,34835
59645,34815
59663,34815
59692,34812
59720,34803
59747,34789
59769,34771
59788,34748
59802,34722
59811,34693
59813,34664
59813,33424
59811,33395
59802,33366
59788,33340
59769,33317
59747,33299
59720,33285
59692,33276
59663,33273
59269,33273
59240,33276
59212,33285
59186,33299
59163,33317
59144,33340
59130,33366
59122,33395
59119,33424
59119,34664
59122,34693
59130,34722
59144,34748
59163,34771
59186,34789
59212,34803
59240,34812
59269,34815
59287,34815
59287,34900
59286,34909
59289,34943
59289,34944
59300,34978
59316,35009
59339,35036
59345,35042
59544,35240
59549,35247
59577,35269
59608,35286
59642,35296
59668,35299
59668,35299
59677,35300
59685,35299
60768,35299
60777,35300
60785,35299
60812,35296
60846,35286
60877,35269
60904,35247
60910,35240
61297,34853
61304,34847
61326,34820
61343,34789
61353,34755
61356,34728
61357,34720
61356,34711
61356,26828
61357,26820
61353,26784
61349,26770
61343,26751
61326,26719
61304,26692
61297,26687
60910,26299
60904,26292
60877,26270
60846,26253
60812,26243
60785,26240
60777,26239
60768,26240
59685,26240
59677,26239
59642,26243
59631,26246
59608,26253
59577,26270
59549,26292
59544,26299
59305,26537
59298,26543
59289,26555
59276,26570
59275,26572
59240,26583
59155,26628
59082,26688
59030,26751
58994,26703
58923,26640
58841,26592
58751,26561
58714,26554
58639,26585
58639,27032
58647,27032
58647,27033
58639,27033
58639,27040
58638,27040
58638,27033
58191,27033
58160,27108
58184,27200
58226,27286
58283,27361
58354,27424
58355,27425
58294,27476
58234,27549
58189,27633
58161,27725
58152,27820
58161,27915
58189,28006
58234,28090
58294,28164
58368,28225
58452,28270
58544,28297
58615,28304
58662,28304
58720,28299
58720,31296
58692,31288
58663,31285
58269,31285
58240,31288
58212,31297
58186,31311
58163,31329
58144,31352
58130,31378
58122,31406
58119,31436
56631,31436
56631,26956
58160,26956
58191,27032
58638,27032
58638,26585
58562,26554
58526,26561
58436,26592
58354,26640
58283,26703
58226,26779
58184,26865
58160,26956
56631,26956
56631,25218
62217,25218
62217,36710
Z" /> 
<path style="fill:#000000; fill-opacity:1.0; 
stroke:#000000; stroke-width:99.6063; stroke-opacity:1; 
stroke-linecap:round; stroke-linejoin:round;fill-rule:evenodd;"
d="M 69697,36710
64111,36710
64111,34664
65599,34664
65602,34693
65610,34722
65624,34748
65643,34771
65666,34789
65692,34803
65720,34812
65750,34815
65909,34814
65946,34776
65946,34044
65947,34044
65947,34776
65984,34814
66143,34815
66173,34812
66201,34803
66227,34789
66250,34771
66268,34748
66282,34722
66291,34693
66294,34664
66293,34082
66256,34044
65947,34044
65946,34044
65637,34044
65600,34082
65599,34664
64111,34664
64111,33424
65599,33424
65600,34006
65637,34044
65946,34044
65946,33312
65947,33312
65947,34044
66256,34044
66293,34006
66294,33424
66291,33395
66282,33366
66268,33340
66250,33317
66227,33299
66201,33285
66173,33276
66143,33273
65984,33274
65947,33312
65946,33312
65909,33274
65750,33273
65720,33276
65692,33285
65666,33299
65643,33317
65624,33340
65610,33366
65602,33395
65599,33424
64111,33424
64111,31436
65599,31436
65599,32676
65602,32705
65610,32733
65624,32760
65643,32782
65666,32801
65692,32815
65720,32824
65750,32826
66143,32826
66173,32824
66201,32815
66227,32801
66250,32782
66268,32760
66282,32733
66291,32705
66294,32676
66294,32098
66500,31892
66507,31886
66529,31859
66537,31844
66546,31828
66556,31794
66559,31759
66559,31750
66559,28160
66562,28164
66636,28225
66720,28270
66778,28287
66778,31285
66750,31285
66720,31288
66692,31297
66666,31311
66643,31329
66624,31352
66610,31378
66602,31406
66599,31436
66599,32676
66602,32705
66610,32733
66624,32760
66643,32782
66666,32801
66692,32815
66720,32824
66750,32826
67143,32826
67173,32824
67201,32815
67227,32801
67250,32782
67268,32760
67282,32733
67291,32705
67294,32676
67294,31436
67291,31406
67282,31378
67268,31352
67250,31329
67227,31311
67201,31297
67173,31288
67143,31285
67136,31285
67136,28246
67177,28225
67250,28164
67300,28104
67349,28164
67423,28225
67507,28270
67599,28297
67664,28304
67664,31312
67643,31329
67624,31352
67610,31378
67602,31406
67599,31436
67599,32676
67602,32705
67610,32733
67624,32760
67643,32782
67666,32801
67692,32815
67720,32824
67750,32826
68143,32826
68173,32824
68201,32815
68227,32801
68250,32782
68268,32760
68282,32733
68291,32705
68294,32676
68294,31436
68291,31406
68282,31378
68268,31352
68250,31329
68227,31311
68201,31297
68173,31288
68143,31285
68023,31285
68023,28176
68038,28164
68098,28090
68143,28006
68171,27915
68180,27820
68171,27725
68143,27633
68098,27549
68067,27512
68086,27506
68104,27496
68300,27692
68300,32894
67920,33273
67750,33273
67720,33276
67692,33285
67666,33299
67643,33317
67624,33340
67610,33366
67602,33395
67599,33424
67599,34664
67602,34693
67610,34722
67624,34748
67643,34771
67666,34789
67692,34803
67720,34812
67750,34815
68143,34815
68173,34812
68201,34803
68227,34789
68250,34771
68268,34748
68282,34722
68291,34693
68294,34664
68294,33424
68292,33408
68478,33223
68478,34645
68183,34940
67231,34940
67126,34835
67126,34815
67143,34815
67173,34812
67201,34803
67227,34789
67250,34771
67268,34748
67282,34722
67291,34693
67294,34664
67294,33424
67291,33395
67282,33366
67268,33340
67250,33317
67227,33299
67201,33285
67173,33276
67143,33273
66750,33273
66720,33276
66692,33285
66666,33299
66643,33317
66624,33340
66610,33366
66602,33395
66599,33424
66599,34664
66602,34693
66610,34722
66624,34748
66643,34771
66666,34789
66692,34803
66720,34812
66750,34815
66767,34815
66767,34900
66766,34909
66769,34943
66770,34944
66780,34978
66797,35009
66819,35036
66826,35042
67024,35240
67030,35247
67057,35269
67088,35286
67122,35296
67148,35299
67148,35299
67157,35300
67166,35299
68248,35299
68257,35300
68266,35299
68292,35296
68326,35286
68357,35269
68384,35247
68390,35240
68778,34853
68784,34847
68807,34820
68823,34789
68834,34755
68836,34728
68837,34720
68836,34711
68836,26828
68837,26820
68834,26784
68829,26770
68823,26751
68807,26719
68784,26692
68778,26687
68390,26299
68384,26292
68357,26270
68326,26253
68292,26243
68266,26240
68257,26239
68248,26240
67166,26240
67157,26239
67122,26243
67112,26246
67088,26253
67057,26270
67030,26292
67024,26299
66786,26537
66779,26543
66769,26555
66756,26570
66756,26572
66720,26583
66636,26628
66562,26688
66510,26751
66474,26703
66403,26640
66321,26592
66232,26561
66195,26554
66119,26585
66119,27032
66127,27032
66127,27033
66119,27033
66119,27040
66119,27040
66119,27033
65672,27033
65640,27108
65664,27200
65706,27286
65763,27361
65834,27424
65836,27425
65775,27476
65714,27549
65669,27633
65641,27725
65632,27820
65641,27915
65669,28006
65714,28090
65775,28164
65848,28225
65933,28270
66024,28297
66095,28304
66143,28304
66200,28299
66200,31296
66173,31288
66143,31285
65750,31285
65720,31288
65692,31297
65666,31311
65643,31329
65624,31352
65610,31378
65602,31406
65599,31436
64111,31436
64111,26956
65640,26956
65672,27032
66119,27032
66119,26585
66043,26554
66006,26561
65916,26592
65834,26640
65763,26703
65706,26779
65664,26865
65640,26956
64111,26956
64111,25218
69697,25218
69697,36710
Z" /> 
<path style="fill:#000000; fill-opacity:1.0; 
stroke:#000000; stroke-width:99.6063; stroke-opacity:1; 
stroke-linecap:round; stroke-linejoin:round;fill-rule:evenodd;"
d="M 77178,36710
71591,36710
71591,34664
73079,34664
73082,34693
73091,34722
73105,34748
73123,34771
73146,34789
73172,34803
73200,34812
73230,34815
73389,34814
73426,34776
73426,34044
73427,34044
73427,34776
73464,34814
73624,34815
73653,34812
73681,34803
73707,34789
73730,34771
73749,34748
73763,34722
73771,34693
73774,34664
73773,34082
73736,34044
73427,34044
73426,34044
73117,34044
73080,34082
73079,34664
71591,34664
71591,33424
73079,33424
73080,34006
73117,34044
73426,34044
73426,33312
73427,33312
73427,34044
73736,34044
73773,34006
73774,33424
73771,33395
73763,33366
73749,33340
73730,33317
73707,33299
73681,33285
73653,33276
73624,33273
73464,33274
73427,33312
73426,33312
73389,33274
73230,33273
73200,33276
73172,33285
73146,33299
73123,33317
73105,33340
73091,33366
73082,33395
73079,33424
71591,33424
71591,31436
73079,31436
73079,32676
73082,32705
73091,32733
73105,32760
73123,32782
73146,32801
73172,32815
73200,32824
73230,32826
73624,32826
73653,32824
73681,32815
73707,32801
73730,32782
73749,32760
73763,32733
73771,32705
73774,32676
73774,32098
73980,31892
73987,31886
74009,31859
74017,31844
74026,31828
74036,31794
74040,31759
74039,31750
74039,28160
74042,28164
74116,28225
74200,28270
74258,28287
74258,31285
74230,31285
74200,31288
74172,31297
74146,31311
74123,31329
74105,31352
74091,31378
74082,31406
74079,31436
74079,32676
74082,32705
74091,32733
74105,32760
74123,32782
74146,32801
74172,32815
74200,32824
74230,32826
74624,32826
74653,32824
74681,32815
74707,32801
74730,32782
74749,32760
74763,32733
74771,32705
74774,32676
74774,31436
74771,31406
74763,31378
74749,31352
74730,31329
74707,31311
74681,31297
74653,31288
74624,31285
74617,31285
74617,28246
74657,28225
74731,28164
74780,28104
74830,28164
74903,28225
74988,28270
75079,28297
75145,28304
75145,31312
75123,31329
75105,31352
75091,31378
75082,31406
75079,31436
75079,32676
75082,32705
75091,32733
75105,32760
75123,32782
75146,32801
75172,32815
75200,32824
75230,32826
75624,32826
75653,32824
75681,32815
75707,32801
75730,32782
75749,32760
75763,32733
75771,32705
75774,32676
75774,31436
75771,31406
75763,31378
75749,31352
75730,31329
75707,31311
75681,31297
75653,31288
75624,31285
75503,31285
75503,28176
75518,28164
75579,28090
75624,28006
75651,27915
75661,27820
75651,27725
75624,27633
75579,27549
75548,27512
75566,27506
75584,27496
75780,27692
75780,32894
75400,33273
75230,33273
75200,33276
75172,33285
75146,33299
75123,33317
75105,33340
75091,33366
75082,33395
75079,33424
75079,34664
75082,34693
75091,34722
75105,34748
75123,34771
75146,34789
75172,34803
75200,34812
75230,34815
75624,34815
75653,34812
75681,34803
75707,34789
75730,34771
75749,34748
75763,34722
75771,34693
75774,34664
75774,33424
75773,33408
75958,33223
75958,34645
75663,34940
74712,34940
74606,34835
74606,34815
74624,34815
74653,34812
74681,34803
74707,34789
74730,34771
74749,34748
74763,34722
74771,34693
74774,34664
74774,33424
74771,33395
74763,33366
74749,33340
74730,33317
74707,33299
74681,33285
74653,33276
74624,33273
74230,33273
74200,33276
74172,33285
74146,33299
74123,33317
74105,33340
74091,33366
74082,33395
74079,33424
74079,34664
74082,34693
74091,34722
74105,34748
74123,34771
74146,34789
74172,34803
74200,34812
74230,34815
74247,34815
74247,34900
74246,34909
74250,34943
74250,34944
74260,34978
74277,35009
74299,35036
74306,35042
74504,35240
74510,35247
74537,35269
74568,35286
74602,35296
74628,35299
74628,35299
74637,35300
74646,35299
75728,35299
75737,35300
75746,35299
75772,35296
75806,35286
75837,35269
75865,35247
75870,35240
76258,34853
76265,34847
76287,34820
76304,34789
76314,34755
76317,34728
76317,34720
76317,34711
76317,26828
76317,26820
76314,26784
76310,26770
76304,26751
76287,26719
76265,26692
76258,26687
75870,26299
75865,26292
75837,26270
75806,26253
75772,26243
75746,26240
75737,26239
75728,26240
74646,26240
74637,26239
74602,26243
74592,26246
74568,26253
74537,26270
74510,26292
74504,26299
74266,26537
74259,26543
74249,26555
74237,26570
74236,26572
74200,26583
74116,26628
74042,26688
73991,26751
73955,26703
73884,26640
73802,26592
73712,26561
73675,26554
73599,26585
73599,27032
73607,27032
73607,27033
73599,27033
73599,27040
73599,27040
73599,27033
73152,27033
73121,27108
73145,27200
73186,27286
73243,27361
73315,27424
73316,27425
73255,27476
73194,27549
73149,27633
73122,27725
73112,27820
73122,27915
73149,28006
73194,28090
73255,28164
73329,28225
73413,28270
73504,28297
73575,28304
73623,28304
73680,28299
73680,31296
73653,31288
73624,31285
73230,31285
73200,31288
73172,31297
73146,31311
73123,31329
73105,31352
73091,31378
73082,31406
73079,31436
71591,31436
71591,26956
73121,26956
73152,27032
73599,27032
73599,26585
73523,26554
73486,26561
73396,26592
73315,26640
73243,26703
73186,26779
73145,26865
73121,26956
71591,26956
71591,25218
77178,25218
77178,36710
Z" /> 
<path style="fill:#000000; fill-opacity:1.0; 
stroke:#000000; stroke-width:99.6063; stroke-opacity:1; 
stroke-linecap:round; stroke-linejoin:round;fill-rule:evenodd;"
d="M 84658,36710
79072,36710
79072,34664
80560,34664
80562,34693
80571,34722
80585,34748
80604,34771
80627,34789
80653,34803
80681,34812
80710,34815
80869,34814
80907,34776
80907,34044
80907,34044
80907,34776
80945,34814
81104,34815
81133,34812
81161,34803
81187,34789
81210,34771
81229,34748
81243,34722
81251,34693
81254,34664
81254,34082
81216,34044
80907,34044
80907,34044
80598,34044
80560,34082
80560,34664
79072,34664
79072,33424
80560,33424
80560,34006
80598,34044
80907,34044
80907,33312
80907,33312
80907,34044
81216,34044
81254,34006
81254,33424
81251,33395
81243,33366
81229,33340
81210,33317
81187,33299
81161,33285
81133,33276
81104,33273
80945,33274
80907,33312
80907,33312
80869,33274
80710,33273
80681,33276
80653,33285
80627,33299
80604,33317
80585,33340
80571,33366
80562,33395
80560,33424
79072,33424
79072,31436
80560,31436
80560,32676
80562,32705
80571,32733
80585,32760
80604,32782
80627,32801
80653,32815
80681,32824
80710,32826
81104,32826
81133,32824
81161,32815
81187,32801
81210,32782
81229,32760
81243,32733
81251,32705
81254,32676
81254,32098
81460,31892
81467,31886
81490,31859
81497,31844
81506,31828
81517,31794
81520,31759
81519,31750
81519,28160
81523,28164
81596,28225
81681,28270
81738,28287
81738,31285
81710,31285
81681,31288
81653,31297
81627,31311
81604,31329
81585,31352
81571,31378
81562,31406
81560,31436
81560,32676
81562,32705
81571,32733
81585,32760
81604,32782
81627,32801
81653,32815
81681,32824
81710,32826
82104,32826
82133,32824
82161,32815
82187,32801
82210,32782
82229,32760
82243,32733
82251,32705
82254,32676
82254,31436
82251,31406
82243,31378
82229,31352
82210,31329
82187,31311
82161,31297
82133,31288
82104,31285
82097,31285
82097,28246
82137,28225
82211,28164
82261,28104
82310,28164
82384,28225
82468,28270
82559,28297
82625,28304
82625,31312
82604,31329
82585,31352
82571,31378
82562,31406
82560,31436
82560,32676
82562,32705
82571,32733
82585,32760
82604,32782
82627,32801
82653,32815
82681,32824
82710,32826
83104,32826
83133,32824
83161,32815
83187,32801
83210,32782
83229,32760
83243,32733
83251,32705
83254,32676
83254,31436
83251,31406
83243,31378
83229,31352
83210,31329
83187,31311
83161,31297
83133,31288
83104,31285
82984,31285
82984,28176
82998,28164
83059,28090
83104,28006
83132,27915
83141,27820
83132,27725
83104,27633
83059,27549
83028,27512
83046,27506
83065,27496
83260,27692
83260,32894
82880,33273
82710,33273
82681,33276
82653,33285
82627,33299
82604,33317
82585,33340
82571,33366
82562,33395
82560,33424
82560,34664
82562,34693
82571,34722
82585,34748
82604,34771
82627,34789
82653,34803
82681,34812
82710,34815
83104,34815
83133,34812
83161,34803
83187,34789
83210,34771
83229,34748
83243,34722
83251,34693
83254,34664
83254,33424
83253,33408
83438,33223
83438,34645
83143,34940
82192,34940
82086,34835
82086,34815
82104,34815
82133,34812
82161,34803
82187,34789
82210,34771
82229,34748
82243,34722
82251,34693
82254,34664
82254,33424
82251,33395
82243,33366
82229,33340
82210,33317
82187,33299
82161,33285
82133,33276
82104,33273
81710,33273
81681,33276
81653,33285
81627,33299
81604,33317
81585,33340
81571,33366
81562,33395
81560,33424
81560,34664
81562,34693
81571,34722
81585,34748
81604,34771
81627,34789
81653,34803
81681,34812
81710,34815
81728,34815
81728,34900
81727,34909
81730,34943
81730,34944
81740,34978
81757,35009
81780,35036
81786,35042
81985,35240
81990,35247
82017,35269
82049,35286
82082,35296
82109,35299
82109,35299
82118,35300
82126,35299
83209,35299
83218,35300
83226,35299
83253,35296
83287,35286
83318,35269
83345,35247
83351,35240
83738,34853
83745,34847
83767,34820
83784,34789
83794,34755
83797,34728
83798,34720
83797,34711
83797,26828
83798,26820
83794,26784
83790,26770
83784,26751
83767,26719
83745,26692
83738,26687
83351,26299
83345,26292
83318,26270
83287,26253
83253,26243
83226,26240
83218,26239
83209,26240
82126,26240
82118,26239
82082,26243
82072,26246
82049,26253
82017,26270
81990,26292
81985,26299
81746,26537
81739,26543
81730,26555
81717,26570
81716,26572
81681,26583
81596,26628
81523,26688
81471,26751
81435,26703
81364,26640
81282,26592
81192,26561
81155,26554
81080,26585
81080,27032
81087,27032
81087,27033
81080,27033
81080,27040
81079,27040
81079,27033
80632,27033
80601,27108
80625,27200
80666,27286
80724,27361
80795,27424
80796,27425
80735,27476
80675,27549
80630,27633
80602,27725
80593,27820
80602,27915
80630,28006
80675,28090
80735,28164
80809,28225
80893,28270
80984,28297
81056,28304
81103,28304
81161,28299
81161,31296
81133,31288
81104,31285
80710,31285
80681,31288
80653,31297
80627,31311
80604,31329
80585,31352
80571,31378
80562,31406
80560,31436
79072,31436
79072,26956
80601,26956
80632,27032
81079,27032
81079,26585
81003,26554
80967,26561
80877,26592
80795,26640
80724,26703
80666,26779
80625,26865
80601,26956
79072,26956
79072,25218
84658,25218
84658,36710
Z" /> 
<path style="fill:#000000; fill-opacity:1.0; 
stroke:#000000; stroke-width:99.6063; stroke-opacity:1; 
stroke-linecap:round; stroke-linejoin:round;fill-rule:evenodd;"
d="M 62217,50096
56631,50096
56631,48050
58119,48050
58122,48079
58130,48107
58144,48134
58163,48156
58186,48175
58212,48189
58240,48198
58269,48200
58428,48200
58466,48162
58466,47430
58466,47430
58466,48162
58504,48200
58663,48200
58692,48198
58720,48189
58747,48175
58769,48156
58788,48134
58802,48107
58811,48079
58813,48050
58813,47467
58775,47430
58466,47430
58466,47430
58157,47430
58119,47467
58119,48050
56631,48050
56631,46810
58119,46810
58119,47392
58157,47430
58466,47430
58466,46697
58466,46697
58466,47430
58775,47430
58813,47392
58813,46810
58811,46780
58802,46752
58788,46726
58769,46703
58747,46685
58720,46671
58692,46662
58663,46659
58504,46660
58466,46697
58466,46697
58428,46660
58269,46659
58240,46662
58212,46671
58186,46685
58163,46703
58144,46726
58130,46752
58122,46780
58119,46810
56631,46810
56631,44822
58119,44822
58119,46062
58122,46091
58130,46119
58144,46145
58163,46168
58186,46187
58212,46201
58240,46209
58269,46212
58663,46212
58692,46209
58720,46201
58747,46187
58769,46168
58788,46145
58802,46119
58811,46091
58813,46062
58813,45483
59019,45277
59026,45272
59049,45244
59056,45230
59065,45213
59076,45180
59079,45144
59078,45136
59078,41546
59082,41550
59155,41610
59240,41655
59297,41673
59297,44671
59269,44671
59240,44674
59212,44682
59186,44696
59163,44715
59144,44738
59130,44764
59122,44792
59119,44822
59119,46062
59122,46091
59130,46119
59144,46145
59163,46168
59186,46187
59212,46201
59240,46209
59269,46212
59663,46212
59692,46209
59720,46201
59747,46187
59769,46168
59788,46145
59802,46119
59811,46091
59813,46062
59813,44822
59811,44792
59802,44764
59788,44738
59769,44715
59747,44696
59720,44682
59692,44674
59663,44671
59656,44671
59656,41632
59696,41610
59770,41550
59820,41490
59869,41550
59943,41610
60027,41655
60118,41683
60184,41690
60184,44698
60163,44715
60144,44738
60130,44764
60122,44792
60119,44822
60119,46062
60122,46091
60130,46119
60144,46145
60163,46168
60186,46187
60212,46201
60240,46209
60269,46212
60663,46212
60692,46209
60720,46201
60747,46187
60769,46168
60788,46145
60802,46119
60811,46091
60813,46062
60813,44822
60811,44792
60802,44764
60788,44738
60769,44715
60747,44696
60720,44682
60692,44674
60663,44671
60543,44671
60543,41562
60557,41550
60618,41476
60663,41392
60691,41301
60700,41206
60691,41111
60663,41019
60618,40935
60587,40897
60606,40892
60624,40882
60819,41078
60819,46279
60440,46659
60269,46659
60240,46662
60212,46671
60186,46685
60163,46703
60144,46726
60130,46752
60122,46780
60119,46810
60119,48050
60122,48079
60130,48107
60144,48134
60163,48156
60186,48175
60212,48189
60240,48198
60269,48200
60663,48200
60692,48198
60720,48189
60747,48175
60769,48156
60788,48134
60802,48107
60811,48079
60813,48050
60813,46810
60812,46794
60997,46609
60997,48031
60702,48326
59751,48326
59645,48220
59645,48200
59663,48200
59692,48198
59720,48189
59747,48175
59769,48156
59788,48134
59802,48107
59811,48079
59813,48050
59813,46810
59811,46780
59802,46752
59788,46726
59769,46703
59747,46685
59720,46671
59692,46662
59663,46659
59269,46659
59240,46662
59212,46671
59186,46685
59163,46703
59144,46726
59130,46752
59122,46780
59119,46810
59119,48050
59122,48079
59130,48107
59144,48134
59163,48156
59186,48175
59212,48189
59240,48198
59269,48200
59287,48200
59287,48286
59286,48295
59289,48329
59289,48330
59300,48364
59316,48395
59339,48422
59345,48428
59544,48626
59549,48633
59577,48655
59608,48672
59642,48682
59668,48685
59668,48685
59677,48686
59685,48685
60768,48685
60777,48686
60785,48685
60812,48682
60846,48672
60877,48655
60904,48633
60910,48626
61297,48238
61304,48233
61326,48206
61343,48174
61353,48141
61356,48114
61357,48105
61356,48097
61356,40214
61357,40205
61353,40170
61349,40156
61343,40136
61326,40105
61304,40078
61297,40072
60910,39685
60904,39678
60877,39656
60846,39639
60812,39629
60785,39626
60777,39625
60768,39626
59685,39626
59677,39625
59642,39629
59631,39632
59608,39639
59577,39656
59549,39678
59544,39685
59305,39923
59298,39929
59289,39941
59276,39956
59275,39958
59240,39968
59155,40013
59082,40074
59030,40137
58994,40089
58923,40026
58841,39978
58751,39947
58714,39940
58639,39971
58639,40418
58647,40418
58647,40418
58639,40418
58639,40426
58638,40426
58638,40418
58191,40418
58160,40494
58184,40586
58226,40671
58283,40747
58354,40810
58355,40811
58294,40861
58234,40935
58189,41019
58161,41111
58152,41206
58161,41301
58189,41392
58234,41476
58294,41550
58368,41610
58452,41655
58544,41683
58615,41690
58662,41690
58720,41684
58720,44682
58692,44674
58663,44671
58269,44671
58240,44674
58212,44682
58186,44696
58163,44715
58144,44738
58130,44764
58122,44792
58119,44822
56631,44822
56631,40342
58160,40342
58191,40418
58638,40418
58638,39971
58562,39940
58526,39947
58436,39978
58354,40026
58283,40089
58226,40165
58184,40250
58160,40342
56631,40342
56631,38604
62217,38604
62217,50096
Z" /> 
<path style="fill:#000000; fill-opacity:1.0; 
stroke:#000000; stroke-width:99.6063; stroke-opacity:1; 
stroke-linecap:round; stroke-linejoin:round;fill-rule:evenodd;"
d="M 69697,50096
64111,50096
64111,48050
65599,48050
65602,48079
65610,48107
65624,48134
65643,48156
65666,48175
65692,48189
65720,48198
65750,48200
65909,48200
65946,48162
65946,47430
65947,47430
65947,48162
65984,48200
66143,48200
66173,48198
66201,48189
66227,48175
66250,48156
66268,48134
66282,48107
66291,48079
66294,48050
66293,47467
66256,47430
65947,47430
65946,47430
65637,47430
65600,47467
65599,48050
64111,48050
64111,46810
65599,46810
65600,47392
65637,47430
65946,47430
65946,46697
65947,46697
65947,47430
66256,47430
66293,47392
66294,46810
66291,46780
66282,46752
66268,46726
66250,46703
66227,46685
66201,46671
66173,46662
66143,46659
65984,46660
65947,46697
65946,46697
65909,46660
65750,46659
65720,46662
65692,46671
65666,46685
65643,46703
65624,46726
65610,46752
65602,46780
65599,46810
64111,46810
64111,44822
65599,44822
65599,46062
65602,46091
65610,46119
65624,46145
65643,46168
65666,46187
65692,46201
65720,46209
65750,46212
66143,46212
66173,46209
66201,46201
66227,46187
66250,46168
66268,46145
66282,46119
66291,46091
66294,46062
66294,45483
66500,45277
66507,45272
66529,45244
66537,45230
66546,45213
66556,45180
66559,45144
66559,45136
66559,41546
66562,41550
66636,41610
66720,41655
66778,41673
66778,44671
66750,44671
66720,44674
66692,44682
66666,44696
66643,44715
66624,44738
66610,44764
66602,44792
66599,44822
66599,46062
66602,46091
66610,46119
66624,46145
66643,46168
66666,46187
66692,46201
66720,46209
66750,46212
67143,46212
67173,46209
67201,46201
67227,46187
67250,46168
67268,46145
67282,46119
67291,46091
67294,46062
67294,44822
67291,44792
67282,44764
67268,44738
67250,44715
67227,44696
67201,44682
67173,44674
67143,44671
67136,44671
67136,41632
67177,41610
67250,41550
67300,41490
67349,41550
67423,41610
67507,41655
67599,41683
67664,41690
67664,44698
67643,44715
67624,44738
67610,44764
67602,44792
67599,44822
67599,46062
67602,46091
67610,46119
67624,46145
67643,46168
67666,46187
67692,46201
67720,46209
67750,46212
68143,46212
68173,46209
68201,46201
68227,46187
68250,46168
68268,46145
68282,46119
68291,46091
68294,46062
68294,44822
68291,44792
68282,44764
68268,44738
68250,44715
68227,44696
68201,44682
68173,44674
68143,44671
68023,44671
68023,41562
68038,41550
68098,41476
68143,41392
68171,41301
68180,41206
68171,41111
68143,41019
68098,40935
68067,40897
68086,40892
68104,40882
68300,41078
68300,46279
67920,46659
67750,46659
67720,46662
67692,46671
67666,46685
67643,46703
67624,46726
67610,46752
67602,46780
67599,46810
67599,48050
67602,48079
67610,48107
67624,48134
67643,48156
67666,48175
67692,48189
67720,48198
67750,48200
68143,48200
68173,48198
68201,48189
68227,48175
68250,48156
68268,48134
68282,48107
68291,48079
68294,48050
68294,46810
68292,46794
68478,46609
68478,48031
68183,48326
67231,48326
67126,48220
67126,48200
67143,48200
67173,48198
67201,48189
67227,48175
67250,48156
67268,48134
67282,48107
67291,48079
67294,48050
67294,46810
67291,46780
67282,46752
67268,46726
67250,46703
67227,46685
67201,46671
67173,46662
67143,46659
66750,46659
66720,46662
66692,46671
66666,46685
66643,46703
66624,46726
66610,46752
66602,46780
66599,46810
66599,48050
66602,48079
66610,48107
66624,48134
66643,48156
66666,48175
66692,48189
66720,48198
66750,48200
66767,48200
66767,48286
66766,48295
66769,48329
66770,48330
66780,48364
66797,48395
66819,48422
66826,48428
67024,48626
67030,48633
67057,48655
67088,48672
67122,48682
67148,48685
67148,48685
67157,48686
67166,48685
68248,48685
68257,48686
68266,48685
68292,48682
68326,48672
68357,48655
68384,48633
68390,48626
68778,48238
68784,48233
68807,48206
68823,48174
68834,48141
68836,48114
68837,48105
68836,48097
68836,40214
68837,40205
68834,40170
68829,40156
68823,40136
68807,40105
68784,40078
68778,40072
68390,39685
68384,39678
68357,39656
68326,39639
68292,39629
68266,39626
68257,39625
68248,39626
67166,39626
67157,39625
67122,39629
67112,39632
67088,39639
67057,39656
67030,39678
67024,39685
66786,39923
66779,39929
66769,39941
66756,39956
66756,39958
66720,39968
66636,40013
66562,40074
66510,40137
66474,40089
66403,40026
66321,39978
66232,39947
66195,39940
66119,39971
66119,40418
66127,40418
66127,40418
66119,40418
66119,40426
66119,40426
66119,40418
65672,40418
65640,40494
65664,40586
65706,40671
65763,40747
65834,40810
65836,40811
65775,40861
65714,40935
65669,41019
65641,41111
65632,41206
65641,41301
65669,41392
65714,41476
65775,41550
65848,41610
65933,41655
66024,41683
66095,41690
66143,41690
66200,41684
66200,44682
66173,44674
66143,44671
65750,44671
65720,44674
65692,44682
65666,44696
65643,44715
65624,44738
65610,44764
65602,44792
65599,44822
64111,44822
64111,40342
65640,40342
65672,40418
66119,40418
66119,39971
66043,39940
66006,39947
65916,39978
65834,40026
65763,40089
65706,40165
65664,40250
65640,40342
64111,40342
64111,38604
69697,38604
69697,50096
Z" /> 
<path style="fill:#000000; fill-opacity:1.0; 
stroke:#000000; stroke-width:99.6063; stroke-opacity:1; 
stroke-linecap:round; stroke-linejoin:round;fill-rule:evenodd;"
d="M 77178,50096
71591,50096
71591,48050
73079,48050
73082,48079
73091,48107
73105,48134
73123,48156
73146,48175
73172,48189
73200,48198
73230,48200
73389,48200
73426,48162
73426,47430
73427,47430
73427,48162
73464,48200
73624,48200
73653,48198
73681,48189
73707,48175
73730,48156
73749,48134
73763,48107
73771,48079
73774,48050
73773,47467
73736,47430
73427,47430
73426,47430
73117,47430
73080,47467
73079,48050
71591,48050
71591,46810
73079,46810
73080,47392
73117,47430
73426,47430
73426,46697
73427,46697
73427,47430
73736,47430
73773,47392
73774,46810
73771,46780
73763,46752
73749,46726
73730,46703
73707,46685
73681,46671
73653,46662
73624,46659
73464,46660
73427,46697
73426,46697
73389,46660
73230,46659
73200,46662
73172,46671
73146,46685
73123,46703
73105,46726
73091,46752
73082,46780
73079,46810
71591,46810
71591,44822
73079,44822
73079,46062
73082,46091
73091,46119
73105,46145
73123,46168
73146,46187
73172,46201
73200,46209
73230,46212
73624,46212
73653,46209
73681,46201
73707,46187
73730,46168
73749,46145
73763,46119
73771,46091
73774,46062
73774,45483
73980,45277
73987,45272
74009,45244
74017,45230
74026,45213
74036,45180
74040,45144
74039,45136
74039,41546
74042,41550
74116,41610
74200,41655
74258,41673
74258,44671
74230,44671
74200,44674
74172,44682
74146,44696
74123,44715
74105,44738
74091,44764
74082,44792
74079,44822
74079,46062
74082,46091
74091,46119
74105,46145
74123,46168
74146,46187
74172,46201
74200,46209
74230,46212
74624,46212
74653,46209
74681,46201
74707,46187
74730,46168
74749,46145
74763,46119
74771,46091
74774,46062
74774,44822
74771,44792
74763,44764
74749,44738
74730,44715
74707,44696
74681,44682
74653,44674
74624,44671
74617,44671
74617,41632
74657,41610
74731,41550
74780,41490
74830,41550
74903,41610
74988,41655
75079,41683
75145,41690
75145,44698
75123,44715
75105,44738
75091,44764
75082,44792
75079,44822
75079,46062
75082,46091
75091,46119
75105,46145
75123,46168
75146,46187
75172,46201
75200,46209
75230,46212
75624,46212
75653,46209
75681,46201
75707,46187
75730,46168
75749,46145
75763,46119
75771,46091
75774,46062
75774,44822
75771,44792
75763,44764
75749,44738
75730,44715
75707,44696
75681,44682
75653,44674
75624,44671
75503,44671
75503,41562
75518,41550
75579,41476
75624,41392
75651,41301
75661,41206
75651,41111
75624,41019
75579,40935
75548,40897
75566,40892
75584,40882
75780,41078
75780,46279
75400,46659
75230,46659
75200,46662
75172,46671
75146,46685
75123,46703
75105,46726
75091,46752
75082,46780
75079,46810
75079,48050
75082,48079
75091,48107
75105,48134
75123,48156
75146,48175
75172,48189
75200,48198
75230,48200
75624,48200
75653,48198
75681,48189
75707,48175
75730,48156
75749,48134
75763,48107
75771,48079
75774,48050
75774,46810
75773,46794
75958,46609
75958,48031
75663,48326
74712,48326
74606,48220
74606,48200
74624,48200
74653,48198
74681,48189
74707,48175
74730,48156
74749,48134
74763,48107
74771,48079
74774,48050
74774,46810
74771,46780
74763,46752
74749,46726
74730,46703
74707,46685
74681,46671
74653,46662
74624,46659
74230,46659
74200,46662
74172,46671
74146,46685
74123,46703
74105,46726
74091,46752
74082,46780
74079,46810
74079,48050
74082,48079
74091,48107
74105,48134
74123,48156
74146,48175
74172,48189
74200,48198
74230,48200
74247,48200
74247,48286
74246,48295
74250,48329
74250,48330
74260,48364
74277,48395
74299,48422
74306,48428
74504,48626
74510,48633
74537,48655
74568,48672
74602,48682
74628,48685
74628,48685
74637,48686
74646,48685
75728,48685
75737,48686
75746,48685
75772,48682
75806,48672
75837,48655
75865,48633
75870,48626
76258,48238
76265,48233
76287,48206
76304,48174
76314,48141
76317,48114
76317,48105
76317,48097
76317,40214
76317,40205
76314,40170
76310,40156
76304,40136
76287,40105
76265,40078
76258,40072
75870,39685
75865,39678
75837,39656
75806,39639
75772,39629
75746,39626
75737,39625
75728,39626
74646,39626
74637,39625
74602,39629
74592,39632
74568,39639
74537,39656
74510,39678
74504,39685
74266,39923
74259,39929
74249,39941
74237,39956
74236,39958
74200,39968
74116,40013
74042,40074
73991,40137
73955,40089
73884,40026
73802,39978
73712,39947
73675,39940
73599,39971
73599,40418
73607,40418
73607,40418
73599,40418
73599,40426
73599,40426
73599,40418
73152,40418
73121,40494
73145,40586
73186,40671
73243,40747
73315,40810
73316,40811
73255,40861
73194,40935
73149,41019
73122,41111
73112,41206
73122,41301
73149,41392
73194,41476
73255,41550
73329,41610
73413,41655
73504,41683
73575,41690
73623,41690
73680,41684
73680,44682
73653,44674
73624,44671
73230,44671
73200,44674
73172,44682
73146,44696
73123,44715
73105,44738
73091,44764
73082,44792
73079,44822
71591,44822
71591,40342
73121,40342
73152,40418
73599,40418
73599,39971
73523,39940
73486,39947
73396,39978
73315,40026
73243,40089
73186,40165
73145,40250
73121,40342
71591,40342
71591,38604
77178,38604
77178,50096
Z" /> 
<path style="fill:#000000; fill-opacity:1.0; 
stroke:#000000; stroke-width:99.6063; stroke-opacity:1; 
stroke-linecap:round; stroke-linejoin:round;fill-rule:evenodd;"
d="M 84658,50096
79072,50096
79072,48050
80560,48050
80562,48079
80571,48107
80585,48134
80604,48156
80627,48175
80653,48189
80681,48198
80710,48200
80869,48200
80907,48162
80907,47430
80907,47430
80907,48162
80945,48200
81104,48200
81133,48198
81161,48189
81187,48175
81210,48156
81229,48134
81243,48107
81251,48079
81254,48050
81254,47467
81216,47430
80907,47430
80907,47430
80598,47430
80560,47467
80560,48050
79072,48050
79072,46810
80560,46810
80560,47392
80598,47430
80907,47430
80907,46697
80907,46697
80907,47430
81216,47430
81254,47392
81254,46810
81251,46780
81243,46752
81229,46726
81210,46703
81187,46685
81161,46671
81133,46662
81104,46659
80945,46660
80907,46697
80907,46697
80869,46660
80710,46659
80681,46662
80653,46671
80627,46685
80604,46703
80585,46726
80571,46752
80562,46780
80560,46810
79072,46810
79072,44822
80560,44822
80560,46062
80562,46091
80571,46119
80585,46145
80604,46168
80627,46187
80653,46201
80681,46209
80710,46212
81104,46212
81133,46209
81161,46201
81187,46187
81210,46168
81229,46145
81243,46119
81251,46091
81254,46062
81254,45483
81460,45277
81467,45272
81490,45244
81497,45230
81506,45213
81517,45180
81520,45144
81519,45136
81519,41546
81523,41550
81596,41610
81681,41655
81738,41673
81738,44671
81710,44671
81681,44674
81653,44682
81627,44696
81604,44715
81585,44738
81571,44764
81562,44792
81560,44822
81560,46062
81562,46091
81571,46119
81585,46145
81604,46168
81627,46187
81653,46201
81681,46209
81710,46212
82104,46212
82133,46209
82161,46201
82187,46187
82210,46168
82229,46145
82243,46119
82251,46091
82254,46062
82254,44822
82251,44792
82243,44764
82229,44738
82210,44715
82187,44696
82161,44682
82133,44674
82104,44671
82097,44671
82097,41632
82137,41610
82211,41550
82261,41490
82310,41550
82384,41610
82468,41655
82559,41683
82625,41690
82625,44698
82604,44715
82585,44738
82571,44764
82562,44792
82560,44822
82560,46062
82562,46091
82571,46119
82585,46145
82604,46168
82627,46187
82653,46201
82681,46209
82710,46212
83104,46212
83133,46209
83161,46201
83187,46187
83210,46168
83229,46145
83243,46119
83251,46091
83254,46062
83254,44822
83251,44792
83243,44764
83229,44738
83210,44715
83187,44696
83161,44682
83133,44674
83104,44671
82984,44671
82984,41562
82998,41550
83059,41476
83104,41392
83132,41301
83141,41206
83132,41111
83104,41019
83059,40935
83028,40897
83046,40892
83065,40882
83260,41078
83260,46279
82880,46659
82710,46659
82681,46662
82653,46671
82627,46685
82604,46703
82585,46726
82571,46752
82562,46780
82560,46810
82560,48050
82562,48079
82571,48107
82585,48134
82604,48156
82627,48175
82653,48189
82681,48198
82710,48200
83104,48200
83133,48198
83161,48189
83187,48175
83210,48156
83229,48134
83243,48107
83251,48079
83254,48050
83254,46810
83253,46794
83438,46609
83438,48031
83143,48326
82192,48326
82086,48220
82086,48200
82104,48200
82133,48198
82161,48189
82187,48175
82210,48156
82229,48134
82243,48107
82251,48079
82254,48050
82254,46810
82251,46780
82243,46752
82229,46726
82210,46703
82187,46685
82161,46671
82133,46662
82104,46659
81710,46659
81681,46662
81653,46671
81627,46685
81604,46703
81585,46726
81571,46752
81562,46780
81560,46810
81560,48050
81562,48079
81571,48107
81585,48134
81604,48156
81627,48175
81653,48189
81681,48198
81710,48200
81728,48200
81728,48286
81727,48295
81730,48329
81730,48330
81740,48364
81757,48395
81780,48422
81786,48428
81985,48626
81990,48633
82017,48655
82049,48672
82082,48682
82109,48685
82109,48685
82118,48686
82126,48685
83209,48685
83218,48686
83226,48685
83253,48682
83287,48672
83318,48655
83345,48633
83351,48626
83738,48238
83745,48233
83767,48206
83784,48174
83794,48141
83797,48114
83798,48105
83797,48097
83797,40214
83798,40205
83794,40170
83790,40156
83784,40136
83767,40105
83745,40078
83738,40072
83351,39685
83345,39678
83318,39656
83287,39639
83253,39629
83226,39626
83218,39625
83209,39626
82126,39626
82118,39625
82082,39629
82072,39632
82049,39639
82017,39656
81990,39678
81985,39685
81746,39923
81739,39929
81730,39941
81717,39956
81716,39958
81681,39968
81596,40013
81523,40074
81471,40137
81435,40089
81364,40026
81282,39978
81192,39947
81155,39940
81080,39971
81080,40418
81087,40418
81087,40418
81080,40418
81080,40426
81079,40426
81079,40418
80632,40418
80601,40494
80625,40586
80666,40671
80724,40747
80795,40810
80796,40811
80735,40861
80675,40935
80630,41019
80602,41111
80593,41206
80602,41301
80630,41392
80675,41476
80735,41550
80809,41610
80893,41655
80984,41683
81056,41690
81103,41690
81161,41684
81161,44682
81133,44674
81104,44671
80710,44671
80681,44674
80653,44682
80627,44696
80604,44715
80585,44738
80571,44764
80562,44792
80560,44822
79072,44822
79072,40342
80601,40342
80632,40418
81079,40418
81079,39971
81003,39940
80967,39947
80877,39978
80795,40026
80724,40089
80666,40165
80625,40250
80601,40342
79072,40342
79072,38604
84658,38604
84658,50096
Z" /> 
</g>
</g>
<g style="fill:#FFFFFF; fill-opacity:1.0; 
stroke:#FFFFFF; stroke-width:99.6063; stroke-opacity:1; 
stroke-linecap:round; stroke-linejoin:round;">
</g>
<g style="fill:#FFFFFF; fill-opacity:1.0; 
stroke:#FFFFFF; stroke-width:0; stroke-opacity:1; 
stroke-linecap:round; stroke-linejoin:round;">
<circle cx="87077.2" cy="27920.1" r="197" /> 
</g>
<g style="fill:#FFFFFF; fill-opacity:1.0; 
stroke:#FFFFFF; stroke-width:39.3701; stroke-opacity:1; 
stroke-linecap:round; stroke-linejoin:round;">
</g>
<g style="fill:#FFFFFF; fill-opacity:1.0; 
stroke:#FFFFFF; stroke-width:0; stroke-opacity:1; 
stroke-linecap:round; stroke-linejoin:round;">
<circle cx="86877.2" cy="46370.1" r="197" /> 
</g>
<g style="fill:#FFFFFF; fill-opacity:1.0; 
stroke:#FFFFFF; stroke-width:39.3701; stroke-opacity:1; 
stroke-linecap:round; stroke-linejoin:round;">
</g>
<g style="fill:#FFFFFF; fill-opacity:1.0; 
stroke:#FFFFFF; stroke-width:0; stroke-opacity:1; 
stroke-linecap:round; stroke-linejoin:round;">
<circle cx="54277.2" cy="48170.1" r="197" /> 
</g>
<g style="fill:#FFFFFF; fill-opacity:1.0; 
stroke:#FFFFFF; stroke-width:39.3701; stroke-opacity:1; 
stroke-linecap:round; stroke-linejoin:round;">
</g>
<g style="fill:#FFFFFF; fill-opacity:1.0; 
stroke:#FFFFFF; stroke-width:0; stroke-opacity:1; 
stroke-linecap:round; stroke-linejoin:round;">
<circle cx="54377.2" cy="26270.1" r="197" /> 
</g>
<g style="fill:#FFFFFF; fill-opacity:1.0; 
stroke:#FFFFFF; stroke-width:39.3701; stroke-opacity:1; 
stroke-linecap:round; stroke-linejoin:round;">
</g>
<g style="fill:#FFFFFF; fill-opacity:1.0; 
stroke:#FFFFFF; stroke-width:0; stroke-opacity:1; 
stroke-linecap:round; stroke-linejoin:round;">
<circle cx="82654.7" cy="40418.7" r="196.85" /> 
</g>
<g style="fill:#FFFFFF; fill-opacity:1.0; 
stroke:#FFFFFF; stroke-width:39.3701; stroke-opacity:1; 
stroke-linecap:round; stroke-linejoin:round;">
</g>
<g style="fill:#FFFFFF; fill-opacity:1.0; 
stroke:#FFFFFF; stroke-width:0; stroke-opacity:1; 
stroke-linecap:round; stroke-linejoin:round;">
<circle cx="82654.7" cy="41206.1" r="196.85" /> 
</g>
<g style="fill:#FFFFFF; fill-opacity:1.0; 
stroke:#FFFFFF; stroke-width:39.3701; stroke-opacity:1; 
stroke-linecap:round; stroke-linejoin:round;">
</g>
<g style="fill:#FFFFFF; fill-opacity:1.0; 
stroke:#FFFFFF; stroke-width:0; stroke-opacity:1; 
stroke-linecap:round; stroke-linejoin:round;">
<circle cx="81867.3" cy="40418.7" r="196.85" /> 
</g>
<g style="fill:#FFFFFF; fill-opacity:1.0; 
stroke:#FFFFFF; stroke-width:39.3701; stroke-opacity:1; 
stroke-linecap:round; stroke-linejoin:round;">
</g>
<g style="fill:#FFFFFF; fill-opacity:1.0; 
stroke:#FFFFFF; stroke-width:0; stroke-opacity:1; 
stroke-linecap:round; stroke-linejoin:round;">
<circle cx="81867.3" cy="41206.1" r="196.85" /> 
</g>
<g style="fill:#FFFFFF; fill-opacity:1.0; 
stroke:#FFFFFF; stroke-width:39.3701; stroke-opacity:1; 
stroke-linecap:round; stroke-linejoin:round;">
</g>
<g style="fill:#FFFFFF; fill-opacity:1.0; 
stroke:#FFFFFF; stroke-width:0; stroke-opacity:1; 
stroke-linecap:round; stroke-linejoin:round;">
<circle cx="81079.9" cy="40418.7" r="196.85" /> 
</g>
<g style="fill:#FFFFFF; fill-opacity:1.0; 
stroke:#FFFFFF; stroke-width:39.3701; stroke-opacity:1; 
stroke-linecap:round; stroke-linejoin:round;">
</g>
<g style="fill:#FFFFFF; fill-opacity:1.0; 
stroke:#FFFFFF; stroke-width:0; stroke-opacity:1; 
stroke-linecap:round; stroke-linejoin:round;">
<circle cx="81079.9" cy="41206.1" r="196.85" /> 
</g>
<g style="fill:#FFFFFF; fill-opacity:1.0; 
stroke:#FFFFFF; stroke-width:39.3701; stroke-opacity:1; 
stroke-linecap:round; stroke-linejoin:round;">
</g>
<g style="fill:#FFFFFF; fill-opacity:1.0; 
stroke:#FFFFFF; stroke-width:0; stroke-opacity:1; 
stroke-linecap:round; stroke-linejoin:round;">
<circle cx="75174.4" cy="40418.7" r="196.85" /> 
</g>
<g style="fill:#FFFFFF; fill-opacity:1.0; 
stroke:#FFFFFF; stroke-width:39.3701; stroke-opacity:1; 
stroke-linecap:round; stroke-linejoin:round;">
</g>
<g style="fill:#FFFFFF; fill-opacity:1.0; 
stroke:#FFFFFF; stroke-width:0; stroke-opacity:1; 
stroke-linecap:round; stroke-linejoin:round;">
<circle cx="75174.4" cy="41206.1" r="196.85" /> 
</g>
<g style="fill:#FFFFFF; fill-opacity:1.0; 
stroke:#FFFFFF; stroke-width:39.3701; stroke-opacity:1; 
stroke-linecap:round; stroke-linejoin:round;">
</g>
<g style="fill:#FFFFFF; fill-opacity:1.0; 
stroke:#FFFFFF; stroke-width:0; stroke-opacity:1; 
stroke-linecap:round; stroke-linejoin:round;">
<circle cx="74387" cy="40418.7" r="196.85" /> 
</g>
<g style="fill:#FFFFFF; fill-opacity:1.0; 
stroke:#FFFFFF; stroke-width:39.3701; stroke-opacity:1; 
stroke-linecap:round; stroke-linejoin:round;">
</g>
<g style="fill:#FFFFFF; fill-opacity:1.0; 
stroke:#FFFFFF; stroke-width:0; stroke-opacity:1; 
stroke-linecap:round; stroke-linejoin:round;">
<circle cx="74387" cy="41206.1" r="196.85" /> 
</g>
<g style="fill:#FFFFFF; fill-opacity:1.0; 
stroke:#FFFFFF; stroke-width:39.3701; stroke-opacity:1; 
stroke-linecap:round; stroke-linejoin:round;">
</g>
<g style="fill:#FFFFFF; fill-opacity:1.0; 
stroke:#FFFFFF; stroke-width:0; stroke-opacity:1; 
stroke-linecap:round; stroke-linejoin:round;">
<circle cx="73599.6" cy="40418.7" r="196.85" /> 
</g>
<g style="fill:#FFFFFF; fill-opacity:1.0; 
stroke:#FFFFFF; stroke-width:39.3701; stroke-opacity:1; 
stroke-linecap:round; stroke-linejoin:round;">
</g>
<g style="fill:#FFFFFF; fill-opacity:1.0; 
stroke:#FFFFFF; stroke-width:0; stroke-opacity:1; 
stroke-linecap:round; stroke-linejoin:round;">
<circle cx="73599.6" cy="41206.1" r="196.85" /> 
</g>
<g style="fill:#FFFFFF; fill-opacity:1.0; 
stroke:#FFFFFF; stroke-width:39.3701; stroke-opacity:1; 
stroke-linecap:round; stroke-linejoin:round;">
</g>
<g style="fill:#FFFFFF; fill-opacity:1.0; 
stroke:#FFFFFF; stroke-width:0; stroke-opacity:1; 
stroke-linecap:round; stroke-linejoin:round;">
<circle cx="67694.1" cy="40418.7" r="196.85" /> 
</g>
<g style="fill:#FFFFFF; fill-opacity:1.0; 
stroke:#FFFFFF; stroke-width:39.3701; stroke-opacity:1; 
stroke-linecap:round; stroke-linejoin:round;">
</g>
<g style="fill:#FFFFFF; fill-opacity:1.0; 
stroke:#FFFFFF; stroke-width:0; stroke-opacity:1; 
stroke-linecap:round; stroke-linejoin:round;">
<circle cx="67694.1" cy="41206.1" r="196.85" /> 
</g>
<g style="fill:#FFFFFF; fill-opacity:1.0; 
stroke:#FFFFFF; stroke-width:39.3701; stroke-opacity:1; 
stroke-linecap:round; stroke-linejoin:round;">
</g>
<g style="fill:#FFFFFF; fill-opacity:1.0; 
stroke:#FFFFFF; stroke-width:0; stroke-opacity:1; 
stroke-linecap:round; stroke-linejoin:round;">
<circle cx="66906.7" cy="40418.7" r="196.85" /> 
</g>
<g style="fill:#FFFFFF; fill-opacity:1.0; 
stroke:#FFFFFF; stroke-width:39.3701; stroke-opacity:1; 
stroke-linecap:round; stroke-linejoin:round;">
</g>
<g style="fill:#FFFFFF; fill-opacity:1.0; 
stroke:#FFFFFF; stroke-width:0; stroke-opacity:1; 
stroke-linecap:round; stroke-linejoin:round;">
<circle cx="66906.7" cy="41206.1" r="196.85" /> 
</g>
<g style="fill:#FFFFFF; fill-opacity:1.0; 
stroke:#FFFFFF; stroke-width:39.3701; stroke-opacity:1; 
stroke-linecap:round; stroke-linejoin:round;">
</g>
<g style="fill:#FFFFFF; fill-opacity:1.0; 
stroke:#FFFFFF; stroke-width:0; stroke-opacity:1; 
stroke-linecap:round; stroke-linejoin:round;">
<circle cx="66119.3" cy="40418.7" r="196.85" /> 
</g>
<g style="fill:#FFFFFF; fill-opacity:1.0; 
stroke:#FFFFFF; stroke-width:39.3701; stroke-opacity:1; 
stroke-linecap:round; stroke-linejoin:round;">
</g>
<g style="fill:#FFFFFF; fill-opacity:1.0; 
stroke:#FFFFFF; stroke-width:0; stroke-opacity:1; 
stroke-linecap:round; stroke-linejoin:round;">
<circle cx="66119.3" cy="41206.1" r="196.85" /> 
</g>
<g style="fill:#FFFFFF; fill-opacity:1.0; 
stroke:#FFFFFF; stroke-width:39.3701; stroke-opacity:1; 
stroke-linecap:round; stroke-linejoin:round;">
</g>
<g style="fill:#FFFFFF; fill-opacity:1.0; 
stroke:#FFFFFF; stroke-width:0; stroke-opacity:1; 
stroke-linecap:round; stroke-linejoin:round;">
<circle cx="60213.8" cy="40418.7" r="196.85" /> 
</g>
<g style="fill:#FFFFFF; fill-opacity:1.0; 
stroke:#FFFFFF; stroke-width:39.3701; stroke-opacity:1; 
stroke-linecap:round; stroke-linejoin:round;">
</g>
<g style="fill:#FFFFFF; fill-opacity:1.0; 
stroke:#FFFFFF; stroke-width:0; stroke-opacity:1; 
stroke-linecap:round; stroke-linejoin:round;">
<circle cx="60213.8" cy="41206.1" r="196.85" /> 
</g>
<g style="fill:#FFFFFF; fill-opacity:1.0; 
stroke:#FFFFFF; stroke-width:39.3701; stroke-opacity:1; 
stroke-linecap:round; stroke-linejoin:round;">
</g>
<g style="fill:#FFFFFF; fill-opacity:1.0; 
stroke:#FFFFFF; stroke-width:0; stroke-opacity:1; 
stroke-linecap:round; stroke-linejoin:round;">
<circle cx="59426.4" cy="40418.7" r="196.85" /> 
</g>
<g style="fill:#FFFFFF; fill-opacity:1.0; 
stroke:#FFFFFF; stroke-width:39.3701; stroke-opacity:1; 
stroke-linecap:round; stroke-linejoin:round;">
</g>
<g style="fill:#FFFFFF; fill-opacity:1.0; 
stroke:#FFFFFF; stroke-width:0; stroke-opacity:1; 
stroke-linecap:round; stroke-linejoin:round;">
<circle cx="59426.4" cy="41206.1" r="196.85" /> 
</g>
<g style="fill:#FFFFFF; fill-opacity:1.0; 
stroke:#FFFFFF; stroke-width:39.3701; stroke-opacity:1; 
stroke-linecap:round; stroke-linejoin:round;">
</g>
<g style="fill:#FFFFFF; fill-opacity:1.0; 
stroke:#FFFFFF; stroke-width:0; stroke-opacity:1; 
stroke-linecap:round; stroke-linejoin:round;">
<circle cx="58639" cy="40418.7" r="196.85" /> 
</g>
<g style="fill:#FFFFFF; fill-opacity:1.0; 
stroke:#FFFFFF; stroke-width:39.3701; stroke-opacity:1; 
stroke-linecap:round; stroke-linejoin:round;">
</g>
<g style="fill:#FFFFFF; fill-opacity:1.0; 
stroke:#FFFFFF; stroke-width:0; stroke-opacity:1; 
stroke-linecap:round; stroke-linejoin:round;">
<circle cx="58639" cy="41206.1" r="196.85" /> 
</g>
<g style="fill:#FFFFFF; fill-opacity:1.0; 
stroke:#FFFFFF; stroke-width:39.3701; stroke-opacity:1; 
stroke-linecap:round; stroke-linejoin:round;">
</g>
<g style="fill:#FFFFFF; fill-opacity:1.0; 
stroke:#FFFFFF; stroke-width:0; stroke-opacity:1; 
stroke-linecap:round; stroke-linejoin:round;">
<circle cx="82654.7" cy="27032.9" r="196.85" /> 
</g>
<g style="fill:#FFFFFF; fill-opacity:1.0; 
stroke:#FFFFFF; stroke-width:39.3701; stroke-opacity:1; 
stroke-linecap:round; stroke-linejoin:round;">
</g>
<g style="fill:#FFFFFF; fill-opacity:1.0; 
stroke:#FFFFFF; stroke-width:0; stroke-opacity:1; 
stroke-linecap:round; stroke-linejoin:round;">
<circle cx="82654.7" cy="27820.3" r="196.85" /> 
</g>
<g style="fill:#FFFFFF; fill-opacity:1.0; 
stroke:#FFFFFF; stroke-width:39.3701; stroke-opacity:1; 
stroke-linecap:round; stroke-linejoin:round;">
</g>
<g style="fill:#FFFFFF; fill-opacity:1.0; 
stroke:#FFFFFF; stroke-width:0; stroke-opacity:1; 
stroke-linecap:round; stroke-linejoin:round;">
<circle cx="81867.3" cy="27032.9" r="196.85" /> 
</g>
<g style="fill:#FFFFFF; fill-opacity:1.0; 
stroke:#FFFFFF; stroke-width:39.3701; stroke-opacity:1; 
stroke-linecap:round; stroke-linejoin:round;">
</g>
<g style="fill:#FFFFFF; fill-opacity:1.0; 
stroke:#FFFFFF; stroke-width:0; stroke-opacity:1; 
stroke-linecap:round; stroke-linejoin:round;">
<circle cx="81867.3" cy="27820.3" r="196.85" /> 
</g>
<g style="fill:#FFFFFF; fill-opacity:1.0; 
stroke:#FFFFFF; stroke-width:39.3701; stroke-opacity:1; 
stroke-linecap:round; stroke-linejoin:round;">
</g>
<g style="fill:#FFFFFF; fill-opacity:1.0; 
stroke:#FFFFFF; stroke-width:0; stroke-opacity:1; 
stroke-linecap:round; stroke-linejoin:round;">
<circle cx="81079.9" cy="27032.9" r="196.85" /> 
</g>
<g style="fill:#FFFFFF; fill-opacity:1.0; 
stroke:#FFFFFF; stroke-width:39.3701; stroke-opacity:1; 
stroke-linecap:round; stroke-linejoin:round;">
</g>
<g style="fill:#FFFFFF; fill-opacity:1.0; 
stroke:#FFFFFF; stroke-width:0; stroke-opacity:1; 
stroke-linecap:round; stroke-linejoin:round;">
<circle cx="81079.9" cy="27820.3" r="196.85" /> 
</g>
<g style="fill:#FFFFFF; fill-opacity:1.0; 
stroke:#FFFFFF; stroke-width:39.3701; stroke-opacity:1; 
stroke-linecap:round; stroke-linejoin:round;">
</g>
<g style="fill:#FFFFFF; fill-opacity:1.0; 
stroke:#FFFFFF; stroke-width:0; stroke-opacity:1; 
stroke-linecap:round; stroke-linejoin:round;">
<circle cx="75174.4" cy="27032.9" r="196.85" /> 
</g>
<g style="fill:#FFFFFF; fill-opacity:1.0; 
stroke:#FFFFFF; stroke-width:39.3701; stroke-opacity:1; 
stroke-linecap:round; stroke-linejoin:round;">
</g>
<g style="fill:#FFFFFF; fill-opacity:1.0; 
stroke:#FFFFFF; stroke-width:0; stroke-opacity:1; 
stroke-linecap:round; stroke-linejoin:round;">
<circle cx="75174.4" cy="27820.3" r="196.85" /> 
</g>
<g style="fill:#FFFFFF; fill-opacity:1.0; 
stroke:#FFFFFF; stroke-width:39.3701; stroke-opacity:1; 
stroke-linecap:round; stroke-linejoin:round;">
</g>
<g style="fill:#FFFFFF; fill-opacity:1.0; 
stroke:#FFFFFF; stroke-width:0; stroke-opacity:1; 
stroke-linecap:round; stroke-linejoin:round;">
<circle cx="74387" cy="27032.9" r="196.85" /> 
</g>
<g style="fill:#FFFFFF; fill-opacity:1.0; 
stroke:#FFFFFF; stroke-width:39.3701; stroke-opacity:1; 
stroke-linecap:round; stroke-linejoin:round;">
</g>
<g style="fill:#FFFFFF; fill-opacity:1.0; 
stroke:#FFFFFF; stroke-width:0; stroke-opacity:1; 
stroke-linecap:round; stroke-linejoin:round;">
<circle cx="74387" cy="27820.3" r="196.85" /> 
</g>
<g style="fill:#FFFFFF; fill-opacity:1.0; 
stroke:#FFFFFF; stroke-width:39.3701; stroke-opacity:1; 
stroke-linecap:round; stroke-linejoin:round;">
</g>
<g style="fill:#FFFFFF; fill-opacity:1.0; 
stroke:#FFFFFF; stroke-width:0; stroke-opacity:1; 
stroke-linecap:round; stroke-linejoin:round;">
<circle cx="73599.6" cy="27032.9" r="196.85" /> 
</g>
<g style="fill:#FFFFFF; fill-opacity:1.0; 
stroke:#FFFFFF; stroke-width:39.3701; stroke-opacity:1; 
stroke-linecap:round; stroke-linejoin:round;">
</g>
<g style="fill:#FFFFFF; fill-opacity:1.0; 
stroke:#FFFFFF; stroke-width:0; stroke-opacity:1; 
stroke-linecap:round; stroke-linejoin:round;">
<circle cx="73599.6" cy="27820.3" r="196.85" /> 
</g>
<g style="fill:#FFFFFF; fill-opacity:1.0; 
stroke:#FFFFFF; stroke-width:39.3701; stroke-opacity:1; 
stroke-linecap:round; stroke-linejoin:round;">
</g>
<g style="fill:#FFFFFF; fill-opacity:1.0; 
stroke:#FFFFFF; stroke-width:0; stroke-opacity:1; 
stroke-linecap:round; stroke-linejoin:round;">
<circle cx="67694.1" cy="27032.9" r="196.85" /> 
</g>
<g style="fill:#FFFFFF; fill-opacity:1.0; 
stroke:#FFFFFF; stroke-width:39.3701; stroke-opacity:1; 
stroke-linecap:round; stroke-linejoin:round;">
</g>
<g style="fill:#FFFFFF; fill-opacity:1.0; 
stroke:#FFFFFF; stroke-width:0; stroke-opacity:1; 
stroke-linecap:round; stroke-linejoin:round;">
<circle cx="67694.1" cy="27820.3" r="196.85" /> 
</g>
<g style="fill:#FFFFFF; fill-opacity:1.0; 
stroke:#FFFFFF; stroke-width:39.3701; stroke-opacity:1; 
stroke-linecap:round; stroke-linejoin:round;">
</g>
<g style="fill:#FFFFFF; fill-opacity:1.0; 
stroke:#FFFFFF; stroke-width:0; stroke-opacity:1; 
stroke-linecap:round; stroke-linejoin:round;">
<circle cx="66906.7" cy="27032.9" r="196.85" /> 
</g>
<g style="fill:#FFFFFF; fill-opacity:1.0; 
stroke:#FFFFFF; stroke-width:39.3701; stroke-opacity:1; 
stroke-linecap:round; stroke-linejoin:round;">
</g>
<g style="fill:#FFFFFF; fill-opacity:1.0; 
stroke:#FFFFFF; stroke-width:0; stroke-opacity:1; 
stroke-linecap:round; stroke-linejoin:round;">
<circle cx="66906.7" cy="27820.3" r="196.85" /> 
</g>
<g style="fill:#FFFFFF; fill-opacity:1.0; 
stroke:#FFFFFF; stroke-width:39.3701; stroke-opacity:1; 
stroke-linecap:round; stroke-linejoin:round;">
</g>
<g style="fill:#FFFFFF; fill-opacity:1.0; 
stroke:#FFFFFF; stroke-width:0; stroke-opacity:1; 
stroke-linecap:round; stroke-linejoin:round;">
<circle cx="66119.3" cy="27032.9" r="196.85" /> 
</g>
<g style="fill:#FFFFFF; fill-opacity:1.0; 
stroke:#FFFFFF; stroke-width:39.3701; stroke-opacity:1; 
stroke-linecap:round; stroke-linejoin:round;">
</g>
<g style="fill:#FFFFFF; fill-opacity:1.0; 
stroke:#FFFFFF; stroke-width:0; stroke-opacity:1; 
stroke-linecap:round; stroke-linejoin:round;">
<circle cx="66119.3" cy="27820.3" r="196.85" /> 
</g>
<g style="fill:#FFFFFF; fill-opacity:1.0; 
stroke:#FFFFFF; stroke-width:39.3701; stroke-opacity:1; 
stroke-linecap:round; stroke-linejoin:round;">
</g>
<g style="fill:#FFFFFF; fill-opacity:1.0; 
stroke:#FFFFFF; stroke-width:0; stroke-opacity:1; 
stroke-linecap:round; stroke-linejoin:round;">
<circle cx="58639" cy="27820.3" r="196.85" /> 
</g>
<g style="fill:#FFFFFF; fill-opacity:1.0; 
stroke:#FFFFFF; stroke-width:39.3701; stroke-opacity:1; 
stroke-linecap:round; stroke-linejoin:round;">
</g>
<g style="fill:#FFFFFF; fill-opacity:1.0; 
stroke:#FFFFFF; stroke-width:0; stroke-opacity:1; 
stroke-linecap:round; stroke-linejoin:round;">
<circle cx="58639" cy="27032.9" r="196.85" /> 
</g>
<g style="fill:#FFFFFF; fill-opacity:1.0; 
stroke:#FFFFFF; stroke-width:39.3701; stroke-opacity:1; 
stroke-linecap:round; stroke-linejoin:round;">
</g>
<g style="fill:#FFFFFF; fill-opacity:1.0; 
stroke:#FFFFFF; stroke-width:0; stroke-opacity:1; 
stroke-linecap:round; stroke-linejoin:round;">
<circle cx="59426.4" cy="27820.3" r="196.85" /> 
</g>
<g style="fill:#FFFFFF; fill-opacity:1.0; 
stroke:#FFFFFF; stroke-width:39.3701; stroke-opacity:1; 
stroke-linecap:round; stroke-linejoin:round;">
</g>
<g style="fill:#FFFFFF; fill-opacity:1.0; 
stroke:#FFFFFF; stroke-width:0; stroke-opacity:1; 
stroke-linecap:round; stroke-linejoin:round;">
<circle cx="59426.4" cy="27032.9" r="196.85" /> 
</g>
<g style="fill:#FFFFFF; fill-opacity:1.0; 
stroke:#FFFFFF; stroke-width:39.3701; stroke-opacity:1; 
stroke-linecap:round; stroke-linejoin:round;">
</g>
<g style="fill:#FFFFFF; fill-opacity:1.0; 
stroke:#FFFFFF; stroke-width:0; stroke-opacity:1; 
stroke-linecap:round; stroke-linejoin:round;">
<circle cx="60213.8" cy="27820.3" r="196.85" /> 
</g>
<g style="fill:#FFFFFF; fill-opacity:1.0; 
stroke:#FFFFFF; stroke-width:39.3701; stroke-opacity:1; 
stroke-linecap:round; stroke-linejoin:round;">
</g>
<g style="fill:#FFFFFF; fill-opacity:1.0; 
stroke:#FFFFFF; stroke-width:0; stroke-opacity:1; 
stroke-linecap:round; stroke-linejoin:round;">
<circle cx="60213.8" cy="27032.9" r="196.85" /> 
</g>
<g style="fill:#FFFFFF; fill-opacity:1.0; 
stroke:#FFFFFF; stroke-width:39.3701; stroke-opacity:1; 
stroke-linecap:round; stroke-linejoin:round;">
</g>
<g style="fill:#000000; fill-opacity:1.0; 
stroke:#000000; stroke-width:39.3701; stroke-opacity:1; 
stroke-linecap:round; stroke-linejoin:round;">
</g> 
</svg>
