M48
; DRILL file {KiCad 5.1.4} date Tue 24 Sep 2019 10:02:08 CEST
; FORMAT={-:-/ absolute / metric / decimal}
; #@! TF.CreationDate,2019-09-24T10:02:08+02:00
; #@! TF.GenerationSoftware,Kicad,Pcbnew,5.1.4
; #@! TF.FileFunction,Plated,1,2,PTH
FMAT,2
METRIC
T1C1.000
%
G90
G05
T1
X57.0Y-34.0
X57.0Y-36.0
X59.0Y-34.0
X59.0Y-36.0
X61.0Y-34.0
X61.0Y-36.0
X0.0Y-34.0
X0.0Y-36.0
X2.0Y-34.0
X2.0Y-36.0
X4.0Y-34.0
X4.0Y-36.0
X0.0Y0.0
X0.0Y-2.0
X2.0Y0.0
X2.0Y-2.0
X4.0Y0.0
X4.0Y-2.0
X19.0Y-34.0
X19.0Y-36.0
X21.0Y-34.0
X21.0Y-36.0
X23.0Y-34.0
X23.0Y-36.0
X57.0Y0.0
X57.0Y-2.0
X59.0Y0.0
X59.0Y-2.0
X61.0Y0.0
X61.0Y-2.0
X38.0Y-34.0
X38.0Y-36.0
X40.0Y-34.0
X40.0Y-36.0
X42.0Y-34.0
X42.0Y-36.0
X38.0Y0.0
X38.0Y-2.0
X40.0Y0.0
X40.0Y-2.0
X42.0Y0.0
X42.0Y-2.0
X19.0Y0.0
X19.0Y-2.0
X21.0Y0.0
X21.0Y-2.0
X23.0Y0.0
X23.0Y-2.0
T0
M30
