G04 #@! TF.GenerationSoftware,KiCad,Pcbnew,5.1.4*
G04 #@! TF.CreationDate,2019-09-24T10:02:05+02:00*
G04 #@! TF.ProjectId,pogo,706f676f-2e6b-4696-9361-645f70636258,rev?*
G04 #@! TF.SameCoordinates,PX8e0b098PY417b8cc*
G04 #@! TF.FileFunction,Profile,NP*
%FSLAX46Y46*%
G04 Gerber Fmt 4.6, Leading zero omitted, Abs format (unit mm)*
G04 Created by KiCad (PCBNEW 5.1.4) date 2019-09-24 10:02:05*
%MOMM*%
%LPD*%
G04 APERTURE LIST*
%ADD10C,0.050000*%
G04 APERTURE END LIST*
D10*
X51495000Y-58986500D02*
X51495000Y-28986500D01*
X32495000Y-58986500D02*
X32495000Y-28986500D01*
X13495000Y-58986500D02*
X13495000Y-28986500D01*
X-5505000Y-58986500D02*
X-5505000Y-28986500D01*
X51495000Y-24986500D02*
X51495000Y5013500D01*
X32495000Y-24986500D02*
X32495000Y5013500D01*
X13495000Y-24986500D02*
X13495000Y5013500D01*
X66495000Y-28986500D02*
X66495000Y-58986500D01*
X47495000Y-28986500D02*
X47495000Y-58986500D01*
X28495000Y-28986500D02*
X28495000Y-58986500D01*
X9495000Y-28986500D02*
X9495000Y-58986500D01*
X66495000Y5013500D02*
X66495000Y-24986500D01*
X47495000Y5013500D02*
X47495000Y-24986500D01*
X28495000Y5013500D02*
X28495000Y-24986500D01*
X51495000Y-28986500D02*
X66495000Y-28986500D01*
X32495000Y-28986500D02*
X47495000Y-28986500D01*
X13495000Y-28986500D02*
X28495000Y-28986500D01*
X-5505000Y-28986500D02*
X9495000Y-28986500D01*
X51495000Y5013500D02*
X66495000Y5013500D01*
X32495000Y5013500D02*
X47495000Y5013500D01*
X13495000Y5013500D02*
X28495000Y5013500D01*
X66495000Y-58986500D02*
X51495000Y-58986500D01*
X47495000Y-58986500D02*
X32495000Y-58986500D01*
X28495000Y-58986500D02*
X13495000Y-58986500D01*
X9495000Y-58986500D02*
X-5505000Y-58986500D01*
X66495000Y-24986500D02*
X51495000Y-24986500D01*
X47495000Y-24986500D02*
X32495000Y-24986500D01*
X28495000Y-24986500D02*
X13495000Y-24986500D01*
X9495000Y-24986500D02*
X-5505000Y-24986500D01*
X9495000Y5013500D02*
X9495000Y-24986500D01*
X-5505000Y5013500D02*
X9495000Y5013500D01*
X-5505000Y-24986500D02*
X-5505000Y5013500D01*
M02*
