<?xml version="1.0" standalone="no"?>
 <!DOCTYPE svg PUBLIC "-//W3C//DTD SVG 1.1//EN" 
 "http://www.w3.org/Graphics/SVG/1.1/DTD/svg11.dtd"> 
<svg xmlns="http://www.w3.org/2000/svg" version="1.1" 
    width="29.7002cm" height="21.0007cm" viewBox="0 0 116930 82680 ">
<title>SVG Picture created as pogo-Edge_Cuts.svg date 2019/09/24 10:02:29 </title>
  <desc>Picture generated by PCBNEW </desc>
<g style="fill:#000000; fill-opacity:1;stroke:#000000; stroke-opacity:1;
stroke-linecap:round; stroke-linejoin:round; "
 transform="translate(0 0) scale(1 1)">
</g>
<g style="fill:#000000; fill-opacity:0.0; 
stroke:#000000; stroke-width:-0.000393701; stroke-opacity:1; 
stroke-linecap:round; stroke-linejoin:round;">
</g>
<g style="fill:#000000; fill-opacity:0.0; 
stroke:#000000; stroke-width:19.685; stroke-opacity:1; 
stroke-linecap:round; stroke-linejoin:round;">
<path d="M78912 50255
L78912 38444
" />
<path d="M71432 50255
L71432 38444
" />
<path d="M63951 50255
L63951 38444
" />
<path d="M56471 50255
L56471 38444
" />
<path d="M78912 36870
L78912 25059
" />
<path d="M71432 36870
L71432 25059
" />
<path d="M63951 36870
L63951 25059
" />
<path d="M84818 38444
L84818 50255
" />
<path d="M77337 38444
L77337 50255
" />
<path d="M69857 38444
L69857 50255
" />
<path d="M62377 38444
L62377 50255
" />
<path d="M84818 25059
L84818 36870
" />
<path d="M77337 25059
L77337 36870
" />
<path d="M69857 25059
L69857 36870
" />
<path d="M78912 38444
L84818 38444
" />
<path d="M71432 38444
L77337 38444
" />
<path d="M63951 38444
L69857 38444
" />
<path d="M56471 38444
L62377 38444
" />
<path d="M78912 25059
L84818 25059
" />
<path d="M71432 25059
L77337 25059
" />
<path d="M63951 25059
L69857 25059
" />
<path d="M84818 50255
L78912 50255
" />
<path d="M77337 50255
L71432 50255
" />
<path d="M69857 50255
L63951 50255
" />
<path d="M62377 50255
L56471 50255
" />
<path d="M84818 36870
L78912 36870
" />
<path d="M77337 36870
L71432 36870
" />
<path d="M69857 36870
L63951 36870
" />
<path d="M62377 36870
L56471 36870
" />
<path d="M62377 25059
L62377 36870
" />
<path d="M56471 25059
L62377 25059
" />
<path d="M56471 36870
L56471 25059
" />
<g >
</g>
<g >
</g>
<g >
</g>
<g >
</g>
<g >
</g>
<g >
</g>
<g >
</g>
<g >
</g>
<g >
</g>
<g >
</g>
<g >
</g>
<g >
</g>
<g >
</g>
<g >
</g>
<g >
</g>
<g >
</g>
<g >
</g>
<g >
</g>
<g >
</g>
<g >
</g>
<g >
</g>
</g> 
</svg>
